<?xml version="1.0" encoding="UTF-8" standalone="no"?>
<!DOCTYPE svg PUBLIC "-//W3C//DTD SVG 1.0//EN"
 "http://www.w3.org/TR/2001/REC-SVG-20010904/DTD/svg10.dtd" [
 <!ATTLIST svg xmlns:xlink CDATA #FIXED "http://www.w3.org/1999/xlink">
]>
<!-- Generated by dot version 2.7.20060111.0540 (Fri Sep  3 08:16:42 UTC 2010)
     For user: (rmoine) Moine Robin -->
<!-- Title: _anonymous_0 Pages: 1 -->
<svg width="1188px" height="7609px"
 viewBox = "0 0 891 5707"
 xmlns="http://www.w3.org/2000/svg" xmlns:xlink="http://www.w3.org/1999/xlink">
<g id="graph0" class="graph" style="font-family:Times-Roman;font-size:14.00;">
<title>_anonymous_0</title>
<polygon style="fill:white;stroke:white;" points="0,5707 0,-11 902,-11 902,5707 0,5707"/>
<!-- input_1 -->
<g id="node1" class="node"><title>input_1</title>
<polygon style="fill:none;stroke:yellow;" points="210,70 606,70 606,6 210,6 210,70"/>
<text text-anchor="middle" x="262" y="44">InputLayer</text>
<polyline style="fill:none;stroke:yellow;" points="314,70 314,6 "/>
<text text-anchor="middle" x="370" y="28">input_shape</text>
<polyline style="fill:none;stroke:yellow;" points="426,38 426,6 "/>
<text text-anchor="middle" x="515" y="28">[(None, 299, 532, 3)]</text>
<polyline style="fill:none;stroke:yellow;" points="314,38 606,38 "/>
<text text-anchor="middle" x="383" y="60">dtype</text>
<polyline style="fill:none;stroke:yellow;" points="454,70 454,38 "/>
<text text-anchor="middle" x="530" y="60">float32</text>
</g>
<!-- conv2d -->
<g id="node2" class="node"><title>conv2d</title>
<polygon style="fill:none;stroke:green;" points="248,395 566,395 566,139 248,139 248,395"/>
<text text-anchor="middle" x="290" y="274">Conv2D</text>
<polyline style="fill:none;stroke:green;" points="332,395 332,139 "/>
<text text-anchor="middle" x="396" y="162">filters</text>
<polyline style="fill:none;stroke:green;" points="462,171 462,139 "/>
<text text-anchor="middle" x="514" y="162">32</text>
<polyline style="fill:none;stroke:green;" points="332,171 566,171 "/>
<text text-anchor="middle" x="402" y="194">kernel_size</text>
<polyline style="fill:none;stroke:green;" points="471,203 471,171 "/>
<text text-anchor="middle" x="518" y="194">(3, 3)</text>
<polyline style="fill:none;stroke:green;" points="332,203 566,203 "/>
<text text-anchor="middle" x="392" y="226">strides</text>
<polyline style="fill:none;stroke:green;" points="454,235 454,203 "/>
<text text-anchor="middle" x="510" y="226">(2, 2)</text>
<polyline style="fill:none;stroke:green;" points="332,235 566,235 "/>
<text text-anchor="middle" x="395" y="258">padding</text>
<polyline style="fill:none;stroke:green;" points="459,267 459,235 "/>
<text text-anchor="middle" x="512" y="258">same</text>
<polyline style="fill:none;stroke:green;" points="332,267 566,267 "/>
<text text-anchor="middle" x="388" y="290">data_format</text>
<polyline style="fill:none;stroke:green;" points="444,299 444,267 "/>
<text text-anchor="middle" x="504" y="290">channels_last</text>
<polyline style="fill:none;stroke:green;" points="332,299 566,299 "/>
<text text-anchor="middle" x="404" y="322">dilation_rate</text>
<polyline style="fill:none;stroke:green;" points="476,331 476,299 "/>
<text text-anchor="middle" x="520" y="322">(1, 1)</text>
<polyline style="fill:none;stroke:green;" points="332,331 566,331 "/>
<text text-anchor="middle" x="398" y="354">activation</text>
<polyline style="fill:none;stroke:green;" points="464,363 464,331 "/>
<text text-anchor="middle" x="515" y="354">linear</text>
<polyline style="fill:none;stroke:green;" points="332,363 566,363 "/>
<text text-anchor="middle" x="396" y="386">use_bias</text>
<polyline style="fill:none;stroke:green;" points="460,395 460,363 "/>
<text text-anchor="middle" x="512" y="386">False</text>
</g>
<!-- input_1&#45;&gt;conv2d -->
<g id="edge2" class="edge"><title>input_1&#45;&gt;conv2d</title>
<path style="fill:none;stroke:black;" d="M407,70C407,84 407,104 407,126"/>
<polygon style="fill:black;stroke:black;" points="412,126 407,139 403,126 412,126"/>
<text text-anchor="middle" x="479" y="111">(None, 299, 532, 3)</text>
</g>
<!-- batch_normalization -->
<g id="node4" class="node"><title>batch_normalization</title>
<polygon style="fill:none;stroke:black;" points="307,512 507,512 507,464 307,464 307,512"/>
<text text-anchor="middle" x="394" y="495">BatchNormalization</text>
<polyline style="fill:none;stroke:black;" points="480,512 480,464 "/>
<text text-anchor="middle" x="494" y="495"> </text>
</g>
<!-- conv2d&#45;&gt;batch_normalization -->
<g id="edge4" class="edge"><title>conv2d&#45;&gt;batch_normalization</title>
<path style="fill:none;stroke:black;" d="M407,395C407,415 407,435 407,451"/>
<polygon style="fill:black;stroke:black;" points="412,451 407,464 403,451 412,451"/>
<text text-anchor="middle" x="484" y="436">(None, 150, 266, 32)</text>
</g>
<!-- activation -->
<g id="node6" class="node"><title>activation</title>
<polygon style="fill:none;stroke:purple;" points="284,630 530,630 530,582 284,582 284,630"/>
<text text-anchor="middle" x="334" y="612">Activation</text>
<polyline style="fill:none;stroke:purple;" points="384,630 384,582 "/>
<text text-anchor="middle" x="431" y="612">activation</text>
<polyline style="fill:none;stroke:purple;" points="479,630 479,582 "/>
<text text-anchor="middle" x="504" y="612">relu</text>
</g>
<!-- batch_normalization&#45;&gt;activation -->
<g id="edge6" class="edge"><title>batch_normalization&#45;&gt;activation</title>
<path style="fill:none;stroke:black;" d="M407,512C407,528 407,550 407,568"/>
<polygon style="fill:black;stroke:black;" points="412,568 407,582 403,568 412,568"/>
<text text-anchor="middle" x="484" y="554">(None, 150, 266, 32)</text>
</g>
<!-- conv2d_1 -->
<g id="node8" class="node"><title>conv2d_1</title>
<polygon style="fill:none;stroke:green;" points="248,955 566,955 566,699 248,699 248,955"/>
<text text-anchor="middle" x="290" y="834">Conv2D</text>
<polyline style="fill:none;stroke:green;" points="332,955 332,699 "/>
<text text-anchor="middle" x="396" y="722">filters</text>
<polyline style="fill:none;stroke:green;" points="462,731 462,699 "/>
<text text-anchor="middle" x="514" y="722">64</text>
<polyline style="fill:none;stroke:green;" points="332,731 566,731 "/>
<text text-anchor="middle" x="402" y="754">kernel_size</text>
<polyline style="fill:none;stroke:green;" points="471,763 471,731 "/>
<text text-anchor="middle" x="518" y="754">(3, 3)</text>
<polyline style="fill:none;stroke:green;" points="332,763 566,763 "/>
<text text-anchor="middle" x="392" y="786">strides</text>
<polyline style="fill:none;stroke:green;" points="454,795 454,763 "/>
<text text-anchor="middle" x="510" y="786">(1, 1)</text>
<polyline style="fill:none;stroke:green;" points="332,795 566,795 "/>
<text text-anchor="middle" x="395" y="818">padding</text>
<polyline style="fill:none;stroke:green;" points="459,827 459,795 "/>
<text text-anchor="middle" x="512" y="818">same</text>
<polyline style="fill:none;stroke:green;" points="332,827 566,827 "/>
<text text-anchor="middle" x="388" y="850">data_format</text>
<polyline style="fill:none;stroke:green;" points="444,859 444,827 "/>
<text text-anchor="middle" x="504" y="850">channels_last</text>
<polyline style="fill:none;stroke:green;" points="332,859 566,859 "/>
<text text-anchor="middle" x="404" y="882">dilation_rate</text>
<polyline style="fill:none;stroke:green;" points="476,891 476,859 "/>
<text text-anchor="middle" x="520" y="882">(1, 1)</text>
<polyline style="fill:none;stroke:green;" points="332,891 566,891 "/>
<text text-anchor="middle" x="398" y="914">activation</text>
<polyline style="fill:none;stroke:green;" points="464,923 464,891 "/>
<text text-anchor="middle" x="515" y="914">linear</text>
<polyline style="fill:none;stroke:green;" points="332,923 566,923 "/>
<text text-anchor="middle" x="396" y="946">use_bias</text>
<polyline style="fill:none;stroke:green;" points="460,955 460,923 "/>
<text text-anchor="middle" x="512" y="946">False</text>
</g>
<!-- activation&#45;&gt;conv2d_1 -->
<g id="edge8" class="edge"><title>activation&#45;&gt;conv2d_1</title>
<path style="fill:none;stroke:black;" d="M407,630C407,644 407,664 407,686"/>
<polygon style="fill:black;stroke:black;" points="412,686 407,699 403,686 412,686"/>
<text text-anchor="middle" x="484" y="671">(None, 150, 266, 32)</text>
</g>
<!-- batch_normalization_1 -->
<g id="node10" class="node"><title>batch_normalization_1</title>
<polygon style="fill:none;stroke:black;" points="307,1072 507,1072 507,1024 307,1024 307,1072"/>
<text text-anchor="middle" x="394" y="1055">BatchNormalization</text>
<polyline style="fill:none;stroke:black;" points="480,1072 480,1024 "/>
<text text-anchor="middle" x="494" y="1055"> </text>
</g>
<!-- conv2d_1&#45;&gt;batch_normalization_1 -->
<g id="edge10" class="edge"><title>conv2d_1&#45;&gt;batch_normalization_1</title>
<path style="fill:none;stroke:black;" d="M407,955C407,975 407,995 407,1011"/>
<polygon style="fill:black;stroke:black;" points="412,1011 407,1024 403,1011 412,1011"/>
<text text-anchor="middle" x="484" y="996">(None, 150, 266, 64)</text>
</g>
<!-- activation_1 -->
<g id="node12" class="node"><title>activation_1</title>
<polygon style="fill:none;stroke:purple;" points="284,1190 530,1190 530,1142 284,1142 284,1190"/>
<text text-anchor="middle" x="334" y="1172">Activation</text>
<polyline style="fill:none;stroke:purple;" points="384,1190 384,1142 "/>
<text text-anchor="middle" x="431" y="1172">activation</text>
<polyline style="fill:none;stroke:purple;" points="479,1190 479,1142 "/>
<text text-anchor="middle" x="504" y="1172">relu</text>
</g>
<!-- batch_normalization_1&#45;&gt;activation_1 -->
<g id="edge12" class="edge"><title>batch_normalization_1&#45;&gt;activation_1</title>
<path style="fill:none;stroke:black;" d="M407,1072C407,1088 407,1110 407,1128"/>
<polygon style="fill:black;stroke:black;" points="412,1128 407,1142 403,1128 412,1128"/>
<text text-anchor="middle" x="484" y="1114">(None, 150, 266, 64)</text>
</g>
<!-- activation_2 -->
<g id="node14" class="node"><title>activation_2</title>
<polygon style="fill:none;stroke:purple;" points="108,1307 354,1307 354,1259 108,1259 108,1307"/>
<text text-anchor="middle" x="158" y="1290">Activation</text>
<polyline style="fill:none;stroke:purple;" points="208,1307 208,1259 "/>
<text text-anchor="middle" x="255" y="1290">activation</text>
<polyline style="fill:none;stroke:purple;" points="303,1307 303,1259 "/>
<text text-anchor="middle" x="328" y="1290">relu</text>
</g>
<!-- activation_1&#45;&gt;activation_2 -->
<g id="edge14" class="edge"><title>activation_1&#45;&gt;activation_2</title>
<path style="fill:none;stroke:black;" d="M368,1190C356,1198 344,1206 332,1214 314,1226 294,1239 276,1251"/>
<polygon style="fill:black;stroke:black;" points="279,1255 266,1259 274,1247 279,1255"/>
<text text-anchor="middle" x="414" y="1231">(None, 150, 266, 64)</text>
</g>
<!-- conv2d_2 -->
<g id="node28" class="node"><title>conv2d_2</title>
<polygon style="fill:none;stroke:green;" points="391,1587 708,1587 708,1331 391,1331 391,1587"/>
<text text-anchor="middle" x="432" y="1466">Conv2D</text>
<polyline style="fill:none;stroke:green;" points="475,1587 475,1331 "/>
<text text-anchor="middle" x="536" y="1354">filters</text>
<polyline style="fill:none;stroke:green;" points="599,1363 599,1331 "/>
<text text-anchor="middle" x="654" y="1354">128</text>
<polyline style="fill:none;stroke:green;" points="475,1363 708,1363 "/>
<text text-anchor="middle" x="544" y="1386">kernel_size</text>
<polyline style="fill:none;stroke:green;" points="614,1395 614,1363 "/>
<text text-anchor="middle" x="660" y="1386">(1, 1)</text>
<polyline style="fill:none;stroke:green;" points="475,1395 708,1395 "/>
<text text-anchor="middle" x="535" y="1418">strides</text>
<polyline style="fill:none;stroke:green;" points="596,1427 596,1395 "/>
<text text-anchor="middle" x="652" y="1418">(2, 2)</text>
<polyline style="fill:none;stroke:green;" points="475,1427 708,1427 "/>
<text text-anchor="middle" x="538" y="1450">padding</text>
<polyline style="fill:none;stroke:green;" points="602,1459 602,1427 "/>
<text text-anchor="middle" x="655" y="1450">same</text>
<polyline style="fill:none;stroke:green;" points="475,1459 708,1459 "/>
<text text-anchor="middle" x="531" y="1482">data_format</text>
<polyline style="fill:none;stroke:green;" points="587,1491 587,1459 "/>
<text text-anchor="middle" x="647" y="1482">channels_last</text>
<polyline style="fill:none;stroke:green;" points="475,1491 708,1491 "/>
<text text-anchor="middle" x="547" y="1514">dilation_rate</text>
<polyline style="fill:none;stroke:green;" points="619,1523 619,1491 "/>
<text text-anchor="middle" x="663" y="1514">(1, 1)</text>
<polyline style="fill:none;stroke:green;" points="475,1523 708,1523 "/>
<text text-anchor="middle" x="540" y="1546">activation</text>
<polyline style="fill:none;stroke:green;" points="607,1555 607,1523 "/>
<text text-anchor="middle" x="658" y="1546">linear</text>
<polyline style="fill:none;stroke:green;" points="475,1555 708,1555 "/>
<text text-anchor="middle" x="539" y="1578">use_bias</text>
<polyline style="fill:none;stroke:green;" points="603,1587 603,1555 "/>
<text text-anchor="middle" x="655" y="1578">False</text>
</g>
<!-- activation_1&#45;&gt;conv2d_2 -->
<g id="edge28" class="edge"><title>activation_1&#45;&gt;conv2d_2</title>
<path style="fill:none;stroke:black;" d="M460,1190C470,1196 480,1204 487,1214 510,1243 524,1280 534,1318"/>
<polygon style="fill:black;stroke:black;" points="538,1318 536,1331 530,1319 538,1318"/>
<text text-anchor="middle" x="572" y="1231">(None, 150, 266, 64)</text>
</g>
<!-- separable_conv2d -->
<g id="node16" class="node"><title>separable_conv2d</title>
<polygon style="fill:none;stroke:darkgreen;" points="10,1899 402,1899 402,1611 10,1611 10,1899"/>
<text text-anchor="middle" x="88" y="1762">SeparableConv2D</text>
<polyline style="fill:none;stroke:darkgreen;" points="168,1899 168,1611 "/>
<text text-anchor="middle" x="230" y="1634">filters</text>
<polyline style="fill:none;stroke:darkgreen;" points="292,1643 292,1611 "/>
<text text-anchor="middle" x="347" y="1634">128</text>
<polyline style="fill:none;stroke:darkgreen;" points="168,1643 402,1643 "/>
<text text-anchor="middle" x="238" y="1666">kernel_size</text>
<polyline style="fill:none;stroke:darkgreen;" points="307,1675 307,1643 "/>
<text text-anchor="middle" x="354" y="1666">(3, 3)</text>
<polyline style="fill:none;stroke:darkgreen;" points="168,1675 402,1675 "/>
<text text-anchor="middle" x="228" y="1698">strides</text>
<polyline style="fill:none;stroke:darkgreen;" points="290,1707 290,1675 "/>
<text text-anchor="middle" x="346" y="1698">(1, 1)</text>
<polyline style="fill:none;stroke:darkgreen;" points="168,1707 402,1707 "/>
<text text-anchor="middle" x="231" y="1730">padding</text>
<polyline style="fill:none;stroke:darkgreen;" points="295,1739 295,1707 "/>
<text text-anchor="middle" x="348" y="1730">same</text>
<polyline style="fill:none;stroke:darkgreen;" points="168,1739 402,1739 "/>
<text text-anchor="middle" x="224" y="1762">data_format</text>
<polyline style="fill:none;stroke:darkgreen;" points="280,1771 280,1739 "/>
<text text-anchor="middle" x="340" y="1762">channels_last</text>
<polyline style="fill:none;stroke:darkgreen;" points="168,1771 402,1771 "/>
<text text-anchor="middle" x="240" y="1794">dilation_rate</text>
<polyline style="fill:none;stroke:darkgreen;" points="312,1803 312,1771 "/>
<text text-anchor="middle" x="356" y="1794">(1, 1)</text>
<polyline style="fill:none;stroke:darkgreen;" points="168,1803 402,1803 "/>
<text text-anchor="middle" x="255" y="1826">depth_multiplier</text>
<polyline style="fill:none;stroke:darkgreen;" points="342,1835 342,1803 "/>
<text text-anchor="middle" x="371" y="1826">1</text>
<polyline style="fill:none;stroke:darkgreen;" points="168,1835 402,1835 "/>
<text text-anchor="middle" x="243" y="1858">activation</text>
<polyline style="fill:none;stroke:darkgreen;" points="319,1867 319,1835 "/>
<text text-anchor="middle" x="360" y="1858"> </text>
<polyline style="fill:none;stroke:darkgreen;" points="168,1867 402,1867 "/>
<text text-anchor="middle" x="232" y="1890">use_bias</text>
<polyline style="fill:none;stroke:darkgreen;" points="296,1899 296,1867 "/>
<text text-anchor="middle" x="348" y="1890">False</text>
</g>
<!-- activation_2&#45;&gt;separable_conv2d -->
<g id="edge16" class="edge"><title>activation_2&#45;&gt;separable_conv2d</title>
<path style="fill:none;stroke:black;" d="M227,1307C227,1315 226,1323 224,1331 216,1419 212,1516 210,1598"/>
<polygon style="fill:black;stroke:black;" points="215,1598 210,1611 206,1598 215,1598"/>
<text text-anchor="middle" x="307" y="1466">(None, 150, 266, 64)</text>
</g>
<!-- batch_normalization_2 -->
<g id="node18" class="node"><title>batch_normalization_2</title>
<polygon style="fill:none;stroke:black;" points="103,2016 303,2016 303,1968 103,1968 103,2016"/>
<text text-anchor="middle" x="190" y="1999">BatchNormalization</text>
<polyline style="fill:none;stroke:black;" points="276,2016 276,1968 "/>
<text text-anchor="middle" x="290" y="1999"> </text>
</g>
<!-- separable_conv2d&#45;&gt;batch_normalization_2 -->
<g id="edge18" class="edge"><title>separable_conv2d&#45;&gt;batch_normalization_2</title>
<path style="fill:none;stroke:black;" d="M204,1899C203,1919 203,1939 203,1955"/>
<polygon style="fill:black;stroke:black;" points="208,1955 203,1968 199,1955 208,1955"/>
<text text-anchor="middle" x="288" y="1940">(None, 150, 266, 128)</text>
</g>
<!-- activation_3 -->
<g id="node20" class="node"><title>activation_3</title>
<polygon style="fill:none;stroke:purple;" points="80,2134 326,2134 326,2086 80,2086 80,2134"/>
<text text-anchor="middle" x="130" y="2116">Activation</text>
<polyline style="fill:none;stroke:purple;" points="180,2134 180,2086 "/>
<text text-anchor="middle" x="227" y="2116">activation</text>
<polyline style="fill:none;stroke:purple;" points="275,2134 275,2086 "/>
<text text-anchor="middle" x="300" y="2116">relu</text>
</g>
<!-- batch_normalization_2&#45;&gt;activation_3 -->
<g id="edge20" class="edge"><title>batch_normalization_2&#45;&gt;activation_3</title>
<path style="fill:none;stroke:black;" d="M203,2016C203,2032 203,2054 203,2072"/>
<polygon style="fill:black;stroke:black;" points="208,2072 203,2086 199,2072 208,2072"/>
<text text-anchor="middle" x="286" y="2058">(None, 150, 266, 128)</text>
</g>
<!-- separable_conv2d_1 -->
<g id="node22" class="node"><title>separable_conv2d_1</title>
<polygon style="fill:none;stroke:darkgreen;" points="6,2491 398,2491 398,2203 6,2203 6,2491"/>
<text text-anchor="middle" x="84" y="2354">SeparableConv2D</text>
<polyline style="fill:none;stroke:darkgreen;" points="164,2491 164,2203 "/>
<text text-anchor="middle" x="226" y="2226">filters</text>
<polyline style="fill:none;stroke:darkgreen;" points="288,2235 288,2203 "/>
<text text-anchor="middle" x="343" y="2226">128</text>
<polyline style="fill:none;stroke:darkgreen;" points="164,2235 398,2235 "/>
<text text-anchor="middle" x="234" y="2258">kernel_size</text>
<polyline style="fill:none;stroke:darkgreen;" points="303,2267 303,2235 "/>
<text text-anchor="middle" x="350" y="2258">(3, 3)</text>
<polyline style="fill:none;stroke:darkgreen;" points="164,2267 398,2267 "/>
<text text-anchor="middle" x="224" y="2290">strides</text>
<polyline style="fill:none;stroke:darkgreen;" points="286,2299 286,2267 "/>
<text text-anchor="middle" x="342" y="2290">(1, 1)</text>
<polyline style="fill:none;stroke:darkgreen;" points="164,2299 398,2299 "/>
<text text-anchor="middle" x="227" y="2322">padding</text>
<polyline style="fill:none;stroke:darkgreen;" points="291,2331 291,2299 "/>
<text text-anchor="middle" x="344" y="2322">same</text>
<polyline style="fill:none;stroke:darkgreen;" points="164,2331 398,2331 "/>
<text text-anchor="middle" x="220" y="2354">data_format</text>
<polyline style="fill:none;stroke:darkgreen;" points="276,2363 276,2331 "/>
<text text-anchor="middle" x="336" y="2354">channels_last</text>
<polyline style="fill:none;stroke:darkgreen;" points="164,2363 398,2363 "/>
<text text-anchor="middle" x="236" y="2386">dilation_rate</text>
<polyline style="fill:none;stroke:darkgreen;" points="308,2395 308,2363 "/>
<text text-anchor="middle" x="352" y="2386">(1, 1)</text>
<polyline style="fill:none;stroke:darkgreen;" points="164,2395 398,2395 "/>
<text text-anchor="middle" x="251" y="2418">depth_multiplier</text>
<polyline style="fill:none;stroke:darkgreen;" points="338,2427 338,2395 "/>
<text text-anchor="middle" x="367" y="2418">1</text>
<polyline style="fill:none;stroke:darkgreen;" points="164,2427 398,2427 "/>
<text text-anchor="middle" x="239" y="2450">activation</text>
<polyline style="fill:none;stroke:darkgreen;" points="315,2459 315,2427 "/>
<text text-anchor="middle" x="356" y="2450"> </text>
<polyline style="fill:none;stroke:darkgreen;" points="164,2459 398,2459 "/>
<text text-anchor="middle" x="228" y="2482">use_bias</text>
<polyline style="fill:none;stroke:darkgreen;" points="292,2491 292,2459 "/>
<text text-anchor="middle" x="344" y="2482">False</text>
</g>
<!-- activation_3&#45;&gt;separable_conv2d_1 -->
<g id="edge22" class="edge"><title>activation_3&#45;&gt;separable_conv2d_1</title>
<path style="fill:none;stroke:black;" d="M203,2134C203,2148 203,2168 203,2190"/>
<polygon style="fill:black;stroke:black;" points="208,2190 203,2203 199,2190 208,2190"/>
<text text-anchor="middle" x="286" y="2175">(None, 150, 266, 128)</text>
</g>
<!-- batch_normalization_3 -->
<g id="node24" class="node"><title>batch_normalization_3</title>
<polygon style="fill:none;stroke:black;" points="102,2608 302,2608 302,2560 102,2560 102,2608"/>
<text text-anchor="middle" x="188" y="2591">BatchNormalization</text>
<polyline style="fill:none;stroke:black;" points="275,2608 275,2560 "/>
<text text-anchor="middle" x="288" y="2591"> </text>
</g>
<!-- separable_conv2d_1&#45;&gt;batch_normalization_3 -->
<g id="edge24" class="edge"><title>separable_conv2d_1&#45;&gt;batch_normalization_3</title>
<path style="fill:none;stroke:black;" d="M202,2491C202,2511 202,2531 202,2547"/>
<polygon style="fill:black;stroke:black;" points="207,2547 202,2560 198,2547 207,2547"/>
<text text-anchor="middle" x="284" y="2532">(None, 150, 266, 128)</text>
</g>
<!-- max_pooling2d -->
<g id="node26" class="node"><title>max_pooling2d</title>
<polygon style="fill:none;stroke:red;" points="56,2774 347,2774 347,2678 56,2678 56,2774"/>
<text text-anchor="middle" x="124" y="2732">MaxPooling2D</text>
<polyline style="fill:none;stroke:red;" points="192,2774 192,2678 "/>
<text text-anchor="middle" x="239" y="2700">pool_size</text>
<polyline style="fill:none;stroke:red;" points="286,2710 286,2678 "/>
<text text-anchor="middle" x="316" y="2700">(3, 3)</text>
<polyline style="fill:none;stroke:red;" points="192,2710 347,2710 "/>
<text text-anchor="middle" x="232" y="2732">strides</text>
<polyline style="fill:none;stroke:red;" points="274,2742 274,2710 "/>
<text text-anchor="middle" x="310" y="2732">(2, 2)</text>
<polyline style="fill:none;stroke:red;" points="192,2742 347,2742 "/>
<text text-anchor="middle" x="236" y="2764">padding</text>
<polyline style="fill:none;stroke:red;" points="280,2774 280,2742 "/>
<text text-anchor="middle" x="314" y="2764">same</text>
</g>
<!-- batch_normalization_3&#45;&gt;max_pooling2d -->
<g id="edge26" class="edge"><title>batch_normalization_3&#45;&gt;max_pooling2d</title>
<path style="fill:none;stroke:black;" d="M202,2608C202,2623 202,2644 202,2664"/>
<polygon style="fill:black;stroke:black;" points="207,2664 202,2678 198,2664 207,2664"/>
<text text-anchor="middle" x="284" y="2650">(None, 150, 266, 128)</text>
</g>
<!-- add -->
<g id="node30" class="node"><title>add</title>
<polygon style="fill:none;stroke:black;" points="338,2891 418,2891 418,2843 338,2843 338,2891"/>
<text text-anchor="middle" x="364" y="2874">Add</text>
<polyline style="fill:none;stroke:black;" points="391,2891 391,2843 "/>
<text text-anchor="middle" x="404" y="2874"> </text>
</g>
<!-- max_pooling2d&#45;&gt;add -->
<g id="edge30" class="edge"><title>max_pooling2d&#45;&gt;add</title>
<path style="fill:none;stroke:black;" d="M191,2774C191,2790 194,2807 203,2819 219,2838 278,2852 324,2859"/>
<polygon style="fill:black;stroke:black;" points="326,2855 338,2862 324,2863 326,2855"/>
<text text-anchor="middle" x="368" y="2815">[(None, 75, 133, 128), (None, 75, 133, 128)]</text>
</g>
<!-- conv2d_2&#45;&gt;add -->
<g id="edge32" class="edge"><title>conv2d_2&#45;&gt;add</title>
<path style="fill:none;stroke:black;" d="M551,1587C552,1683 554,1816 554,1934 554,1934 554,1934 554,2726 554,2768 563,2788 535,2819 520,2835 471,2848 431,2858"/>
<polygon style="fill:black;stroke:black;" points="431,2862 418,2860 430,2854 431,2862"/>
<text text-anchor="middle" x="719" y="2175">[(None, 75, 133, 128), (None, 75, 133, 128)]</text>
</g>
<!-- activation_4 -->
<g id="node33" class="node"><title>activation_4</title>
<polygon style="fill:none;stroke:purple;" points="126,3008 371,3008 371,2960 126,2960 126,3008"/>
<text text-anchor="middle" x="175" y="2991">Activation</text>
<polyline style="fill:none;stroke:purple;" points="226,3008 226,2960 "/>
<text text-anchor="middle" x="272" y="2991">activation</text>
<polyline style="fill:none;stroke:purple;" points="320,3008 320,2960 "/>
<text text-anchor="middle" x="346" y="2991">relu</text>
</g>
<!-- add&#45;&gt;activation_4 -->
<g id="edge34" class="edge"><title>add&#45;&gt;activation_4</title>
<path style="fill:none;stroke:black;" d="M351,2891C332,2908 306,2932 286,2951"/>
<polygon style="fill:black;stroke:black;" points="288,2955 275,2960 282,2948 288,2955"/>
<text text-anchor="middle" x="403" y="2932">(None, 75, 133, 128)</text>
</g>
<!-- conv2d_3 -->
<g id="node47" class="node"><title>conv2d_3</title>
<polygon style="fill:none;stroke:green;" points="392,3288 710,3288 710,3032 392,3032 392,3288"/>
<text text-anchor="middle" x="434" y="3167">Conv2D</text>
<polyline style="fill:none;stroke:green;" points="476,3288 476,3032 "/>
<text text-anchor="middle" x="538" y="3055">filters</text>
<polyline style="fill:none;stroke:green;" points="600,3064 600,3032 "/>
<text text-anchor="middle" x="655" y="3055">256</text>
<polyline style="fill:none;stroke:green;" points="476,3064 710,3064 "/>
<text text-anchor="middle" x="546" y="3087">kernel_size</text>
<polyline style="fill:none;stroke:green;" points="615,3096 615,3064 "/>
<text text-anchor="middle" x="662" y="3087">(1, 1)</text>
<polyline style="fill:none;stroke:green;" points="476,3096 710,3096 "/>
<text text-anchor="middle" x="536" y="3119">strides</text>
<polyline style="fill:none;stroke:green;" points="598,3128 598,3096 "/>
<text text-anchor="middle" x="654" y="3119">(2, 2)</text>
<polyline style="fill:none;stroke:green;" points="476,3128 710,3128 "/>
<text text-anchor="middle" x="539" y="3151">padding</text>
<polyline style="fill:none;stroke:green;" points="603,3160 603,3128 "/>
<text text-anchor="middle" x="656" y="3151">same</text>
<polyline style="fill:none;stroke:green;" points="476,3160 710,3160 "/>
<text text-anchor="middle" x="532" y="3183">data_format</text>
<polyline style="fill:none;stroke:green;" points="588,3192 588,3160 "/>
<text text-anchor="middle" x="648" y="3183">channels_last</text>
<polyline style="fill:none;stroke:green;" points="476,3192 710,3192 "/>
<text text-anchor="middle" x="548" y="3215">dilation_rate</text>
<polyline style="fill:none;stroke:green;" points="620,3224 620,3192 "/>
<text text-anchor="middle" x="664" y="3215">(1, 1)</text>
<polyline style="fill:none;stroke:green;" points="476,3224 710,3224 "/>
<text text-anchor="middle" x="542" y="3247">activation</text>
<polyline style="fill:none;stroke:green;" points="608,3256 608,3224 "/>
<text text-anchor="middle" x="659" y="3247">linear</text>
<polyline style="fill:none;stroke:green;" points="476,3256 710,3256 "/>
<text text-anchor="middle" x="540" y="3279">use_bias</text>
<polyline style="fill:none;stroke:green;" points="604,3288 604,3256 "/>
<text text-anchor="middle" x="656" y="3279">False</text>
</g>
<!-- add&#45;&gt;conv2d_3 -->
<g id="edge48" class="edge"><title>add&#45;&gt;conv2d_3</title>
<path style="fill:none;stroke:black;" d="M418,2876C440,2883 468,2895 486,2915 510,2944 524,2982 535,3019"/>
<polygon style="fill:black;stroke:black;" points="539,3019 538,3032 531,3020 539,3019"/>
<text text-anchor="middle" x="575" y="2932">(None, 75, 133, 128)</text>
</g>
<!-- separable_conv2d_2 -->
<g id="node35" class="node"><title>separable_conv2d_2</title>
<polygon style="fill:none;stroke:darkgreen;" points="27,3600 419,3600 419,3312 27,3312 27,3600"/>
<text text-anchor="middle" x="106" y="3463">SeparableConv2D</text>
<polyline style="fill:none;stroke:darkgreen;" points="186,3600 186,3312 "/>
<text text-anchor="middle" x="247" y="3335">filters</text>
<polyline style="fill:none;stroke:darkgreen;" points="310,3344 310,3312 "/>
<text text-anchor="middle" x="364" y="3335">256</text>
<polyline style="fill:none;stroke:darkgreen;" points="186,3344 419,3344 "/>
<text text-anchor="middle" x="255" y="3367">kernel_size</text>
<polyline style="fill:none;stroke:darkgreen;" points="324,3376 324,3344 "/>
<text text-anchor="middle" x="371" y="3367">(3, 3)</text>
<polyline style="fill:none;stroke:darkgreen;" points="186,3376 419,3376 "/>
<text text-anchor="middle" x="246" y="3399">strides</text>
<polyline style="fill:none;stroke:darkgreen;" points="307,3408 307,3376 "/>
<text text-anchor="middle" x="363" y="3399">(1, 1)</text>
<polyline style="fill:none;stroke:darkgreen;" points="186,3408 419,3408 "/>
<text text-anchor="middle" x="248" y="3431">padding</text>
<polyline style="fill:none;stroke:darkgreen;" points="312,3440 312,3408 "/>
<text text-anchor="middle" x="366" y="3431">same</text>
<polyline style="fill:none;stroke:darkgreen;" points="186,3440 419,3440 "/>
<text text-anchor="middle" x="242" y="3463">data_format</text>
<polyline style="fill:none;stroke:darkgreen;" points="298,3472 298,3440 "/>
<text text-anchor="middle" x="358" y="3463">channels_last</text>
<polyline style="fill:none;stroke:darkgreen;" points="186,3472 419,3472 "/>
<text text-anchor="middle" x="258" y="3495">dilation_rate</text>
<polyline style="fill:none;stroke:darkgreen;" points="330,3504 330,3472 "/>
<text text-anchor="middle" x="374" y="3495">(1, 1)</text>
<polyline style="fill:none;stroke:darkgreen;" points="186,3504 419,3504 "/>
<text text-anchor="middle" x="272" y="3527">depth_multiplier</text>
<polyline style="fill:none;stroke:darkgreen;" points="359,3536 359,3504 "/>
<text text-anchor="middle" x="388" y="3527">1</text>
<polyline style="fill:none;stroke:darkgreen;" points="186,3536 419,3536 "/>
<text text-anchor="middle" x="260" y="3559">activation</text>
<polyline style="fill:none;stroke:darkgreen;" points="336,3568 336,3536 "/>
<text text-anchor="middle" x="378" y="3559"> </text>
<polyline style="fill:none;stroke:darkgreen;" points="186,3568 419,3568 "/>
<text text-anchor="middle" x="250" y="3591">use_bias</text>
<polyline style="fill:none;stroke:darkgreen;" points="314,3600 314,3568 "/>
<text text-anchor="middle" x="366" y="3591">False</text>
</g>
<!-- activation_4&#45;&gt;separable_conv2d_2 -->
<g id="edge36" class="edge"><title>activation_4&#45;&gt;separable_conv2d_2</title>
<path style="fill:none;stroke:black;" d="M235,3008C231,3016 227,3024 226,3032 207,3119 204,3218 208,3299"/>
<polygon style="fill:black;stroke:black;" points="214,3299 208,3312 204,3299 214,3299"/>
<text text-anchor="middle" x="308" y="3167">(None, 75, 133, 128)</text>
</g>
<!-- batch_normalization_4 -->
<g id="node37" class="node"><title>batch_normalization_4</title>
<polygon style="fill:none;stroke:black;" points="120,3718 320,3718 320,3670 120,3670 120,3718"/>
<text text-anchor="middle" x="207" y="3700">BatchNormalization</text>
<polyline style="fill:none;stroke:black;" points="294,3718 294,3670 "/>
<text text-anchor="middle" x="307" y="3700"> </text>
</g>
<!-- separable_conv2d_2&#45;&gt;batch_normalization_4 -->
<g id="edge38" class="edge"><title>separable_conv2d_2&#45;&gt;batch_normalization_4</title>
<path style="fill:none;stroke:black;" d="M222,3600C220,3620 220,3640 220,3656"/>
<polygon style="fill:black;stroke:black;" points="226,3656 220,3670 216,3656 226,3656"/>
<text text-anchor="middle" x="302" y="3642">(None, 75, 133, 256)</text>
</g>
<!-- activation_5 -->
<g id="node39" class="node"><title>activation_5</title>
<polygon style="fill:none;stroke:purple;" points="98,3835 343,3835 343,3787 98,3787 98,3835"/>
<text text-anchor="middle" x="147" y="3818">Activation</text>
<polyline style="fill:none;stroke:purple;" points="198,3835 198,3787 "/>
<text text-anchor="middle" x="244" y="3818">activation</text>
<polyline style="fill:none;stroke:purple;" points="292,3835 292,3787 "/>
<text text-anchor="middle" x="318" y="3818">relu</text>
</g>
<!-- batch_normalization_4&#45;&gt;activation_5 -->
<g id="edge40" class="edge"><title>batch_normalization_4&#45;&gt;activation_5</title>
<path style="fill:none;stroke:black;" d="M220,3718C220,3734 220,3755 220,3774"/>
<polygon style="fill:black;stroke:black;" points="226,3774 220,3787 216,3774 226,3774"/>
<text text-anchor="middle" x="299" y="3759">(None, 75, 133, 256)</text>
</g>
<!-- separable_conv2d_3 -->
<g id="node41" class="node"><title>separable_conv2d_3</title>
<polygon style="fill:none;stroke:darkgreen;" points="24,4192 416,4192 416,3904 24,3904 24,4192"/>
<text text-anchor="middle" x="103" y="4055">SeparableConv2D</text>
<polyline style="fill:none;stroke:darkgreen;" points="183,4192 183,3904 "/>
<text text-anchor="middle" x="244" y="3927">filters</text>
<polyline style="fill:none;stroke:darkgreen;" points="307,3936 307,3904 "/>
<text text-anchor="middle" x="362" y="3927">256</text>
<polyline style="fill:none;stroke:darkgreen;" points="183,3936 416,3936 "/>
<text text-anchor="middle" x="252" y="3959">kernel_size</text>
<polyline style="fill:none;stroke:darkgreen;" points="322,3968 322,3936 "/>
<text text-anchor="middle" x="368" y="3959">(3, 3)</text>
<polyline style="fill:none;stroke:darkgreen;" points="183,3968 416,3968 "/>
<text text-anchor="middle" x="243" y="3991">strides</text>
<polyline style="fill:none;stroke:darkgreen;" points="304,4000 304,3968 "/>
<text text-anchor="middle" x="360" y="3991">(1, 1)</text>
<polyline style="fill:none;stroke:darkgreen;" points="183,4000 416,4000 "/>
<text text-anchor="middle" x="246" y="4023">padding</text>
<polyline style="fill:none;stroke:darkgreen;" points="310,4032 310,4000 "/>
<text text-anchor="middle" x="363" y="4023">same</text>
<polyline style="fill:none;stroke:darkgreen;" points="183,4032 416,4032 "/>
<text text-anchor="middle" x="239" y="4055">data_format</text>
<polyline style="fill:none;stroke:darkgreen;" points="295,4064 295,4032 "/>
<text text-anchor="middle" x="355" y="4055">channels_last</text>
<polyline style="fill:none;stroke:darkgreen;" points="183,4064 416,4064 "/>
<text text-anchor="middle" x="255" y="4087">dilation_rate</text>
<polyline style="fill:none;stroke:darkgreen;" points="327,4096 327,4064 "/>
<text text-anchor="middle" x="371" y="4087">(1, 1)</text>
<polyline style="fill:none;stroke:darkgreen;" points="183,4096 416,4096 "/>
<text text-anchor="middle" x="270" y="4119">depth_multiplier</text>
<polyline style="fill:none;stroke:darkgreen;" points="356,4128 356,4096 "/>
<text text-anchor="middle" x="386" y="4119">1</text>
<polyline style="fill:none;stroke:darkgreen;" points="183,4128 416,4128 "/>
<text text-anchor="middle" x="258" y="4151">activation</text>
<polyline style="fill:none;stroke:darkgreen;" points="334,4160 334,4128 "/>
<text text-anchor="middle" x="375" y="4151"> </text>
<polyline style="fill:none;stroke:darkgreen;" points="183,4160 416,4160 "/>
<text text-anchor="middle" x="247" y="4183">use_bias</text>
<polyline style="fill:none;stroke:darkgreen;" points="311,4192 311,4160 "/>
<text text-anchor="middle" x="363" y="4183">False</text>
</g>
<!-- activation_5&#45;&gt;separable_conv2d_3 -->
<g id="edge42" class="edge"><title>activation_5&#45;&gt;separable_conv2d_3</title>
<path style="fill:none;stroke:black;" d="M220,3835C220,3850 220,3870 220,3891"/>
<polygon style="fill:black;stroke:black;" points="226,3891 220,3904 216,3891 226,3891"/>
<text text-anchor="middle" x="299" y="3876">(None, 75, 133, 256)</text>
</g>
<!-- batch_normalization_5 -->
<g id="node43" class="node"><title>batch_normalization_5</title>
<polygon style="fill:none;stroke:black;" points="120,4310 320,4310 320,4262 120,4262 120,4310"/>
<text text-anchor="middle" x="207" y="4292">BatchNormalization</text>
<polyline style="fill:none;stroke:black;" points="294,4310 294,4262 "/>
<text text-anchor="middle" x="307" y="4292"> </text>
</g>
<!-- separable_conv2d_3&#45;&gt;batch_normalization_5 -->
<g id="edge44" class="edge"><title>separable_conv2d_3&#45;&gt;batch_normalization_5</title>
<path style="fill:none;stroke:black;" d="M220,4192C220,4212 220,4232 220,4248"/>
<polygon style="fill:black;stroke:black;" points="226,4248 220,4262 216,4248 226,4248"/>
<text text-anchor="middle" x="299" y="4234">(None, 75, 133, 256)</text>
</g>
<!-- max_pooling2d_1 -->
<g id="node45" class="node"><title>max_pooling2d_1</title>
<polygon style="fill:none;stroke:red;" points="75,4475 366,4475 366,4379 75,4379 75,4475"/>
<text text-anchor="middle" x="143" y="4434">MaxPooling2D</text>
<polyline style="fill:none;stroke:red;" points="211,4475 211,4379 "/>
<text text-anchor="middle" x="258" y="4402">pool_size</text>
<polyline style="fill:none;stroke:red;" points="304,4411 304,4379 "/>
<text text-anchor="middle" x="335" y="4402">(3, 3)</text>
<polyline style="fill:none;stroke:red;" points="211,4411 366,4411 "/>
<text text-anchor="middle" x="251" y="4434">strides</text>
<polyline style="fill:none;stroke:red;" points="292,4443 292,4411 "/>
<text text-anchor="middle" x="328" y="4434">(2, 2)</text>
<polyline style="fill:none;stroke:red;" points="211,4443 366,4443 "/>
<text text-anchor="middle" x="255" y="4466">padding</text>
<polyline style="fill:none;stroke:red;" points="299,4475 299,4443 "/>
<text text-anchor="middle" x="332" y="4466">same</text>
</g>
<!-- batch_normalization_5&#45;&gt;max_pooling2d_1 -->
<g id="edge46" class="edge"><title>batch_normalization_5&#45;&gt;max_pooling2d_1</title>
<path style="fill:none;stroke:black;" d="M220,4310C220,4324 220,4346 220,4366"/>
<polygon style="fill:black;stroke:black;" points="226,4366 220,4379 216,4366 226,4366"/>
<text text-anchor="middle" x="299" y="4351">(None, 75, 133, 256)</text>
</g>
<!-- add_1 -->
<g id="node49" class="node"><title>add_1</title>
<polygon style="fill:none;stroke:black;" points="347,4592 427,4592 427,4544 347,4544 347,4592"/>
<text text-anchor="middle" x="374" y="4575">Add</text>
<polyline style="fill:none;stroke:black;" points="400,4592 400,4544 "/>
<text text-anchor="middle" x="414" y="4575"> </text>
</g>
<!-- max_pooling2d_1&#45;&gt;add_1 -->
<g id="edge50" class="edge"><title>max_pooling2d_1&#45;&gt;add_1</title>
<path style="fill:none;stroke:black;" d="M211,4475C210,4491 212,4508 222,4520 236,4539 291,4552 334,4559"/>
<polygon style="fill:black;stroke:black;" points="335,4555 347,4562 334,4563 335,4555"/>
<text text-anchor="middle" x="378" y="4516">[(None, 38, 67, 256), (None, 38, 67, 256)]</text>
</g>
<!-- conv2d_3&#45;&gt;add_1 -->
<g id="edge52" class="edge"><title>conv2d_3&#45;&gt;add_1</title>
<path style="fill:none;stroke:black;" d="M552,3288C552,3384 554,3518 554,3635 554,3635 554,3635 554,4427 554,4470 563,4490 535,4520 522,4536 478,4550 440,4558"/>
<polygon style="fill:black;stroke:black;" points="440,4562 427,4560 439,4554 440,4562"/>
<text text-anchor="middle" x="710" y="3876">[(None, 38, 67, 256), (None, 38, 67, 256)]</text>
</g>
<!-- separable_conv2d_4 -->
<g id="node52" class="node"><title>separable_conv2d_4</title>
<polygon style="fill:none;stroke:darkgreen;" points="191,4950 583,4950 583,4662 191,4662 191,4950"/>
<text text-anchor="middle" x="270" y="4812">SeparableConv2D</text>
<polyline style="fill:none;stroke:darkgreen;" points="350,4950 350,4662 "/>
<text text-anchor="middle" x="411" y="4684">filters</text>
<polyline style="fill:none;stroke:darkgreen;" points="474,4694 474,4662 "/>
<text text-anchor="middle" x="528" y="4684">512</text>
<polyline style="fill:none;stroke:darkgreen;" points="350,4694 583,4694 "/>
<text text-anchor="middle" x="419" y="4716">kernel_size</text>
<polyline style="fill:none;stroke:darkgreen;" points="488,4726 488,4694 "/>
<text text-anchor="middle" x="535" y="4716">(3, 3)</text>
<polyline style="fill:none;stroke:darkgreen;" points="350,4726 583,4726 "/>
<text text-anchor="middle" x="410" y="4748">strides</text>
<polyline style="fill:none;stroke:darkgreen;" points="471,4758 471,4726 "/>
<text text-anchor="middle" x="527" y="4748">(1, 1)</text>
<polyline style="fill:none;stroke:darkgreen;" points="350,4758 583,4758 "/>
<text text-anchor="middle" x="412" y="4780">padding</text>
<polyline style="fill:none;stroke:darkgreen;" points="476,4790 476,4758 "/>
<text text-anchor="middle" x="530" y="4780">same</text>
<polyline style="fill:none;stroke:darkgreen;" points="350,4790 583,4790 "/>
<text text-anchor="middle" x="406" y="4812">data_format</text>
<polyline style="fill:none;stroke:darkgreen;" points="462,4822 462,4790 "/>
<text text-anchor="middle" x="522" y="4812">channels_last</text>
<polyline style="fill:none;stroke:darkgreen;" points="350,4822 583,4822 "/>
<text text-anchor="middle" x="422" y="4844">dilation_rate</text>
<polyline style="fill:none;stroke:darkgreen;" points="494,4854 494,4822 "/>
<text text-anchor="middle" x="538" y="4844">(1, 1)</text>
<polyline style="fill:none;stroke:darkgreen;" points="350,4854 583,4854 "/>
<text text-anchor="middle" x="436" y="4876">depth_multiplier</text>
<polyline style="fill:none;stroke:darkgreen;" points="523,4886 523,4854 "/>
<text text-anchor="middle" x="552" y="4876">1</text>
<polyline style="fill:none;stroke:darkgreen;" points="350,4886 583,4886 "/>
<text text-anchor="middle" x="424" y="4908">activation</text>
<polyline style="fill:none;stroke:darkgreen;" points="500,4918 500,4886 "/>
<text text-anchor="middle" x="542" y="4908"> </text>
<polyline style="fill:none;stroke:darkgreen;" points="350,4918 583,4918 "/>
<text text-anchor="middle" x="414" y="4940">use_bias</text>
<polyline style="fill:none;stroke:darkgreen;" points="478,4950 478,4918 "/>
<text text-anchor="middle" x="530" y="4940">False</text>
</g>
<!-- add_1&#45;&gt;separable_conv2d_4 -->
<g id="edge54" class="edge"><title>add_1&#45;&gt;separable_conv2d_4</title>
<path style="fill:none;stroke:black;" d="M387,4592C387,4607 387,4627 387,4648"/>
<polygon style="fill:black;stroke:black;" points="392,4648 387,4662 383,4648 392,4648"/>
<text text-anchor="middle" x="459" y="4634">(None, 38, 67, 256)</text>
</g>
<!-- batch_normalization_6 -->
<g id="node54" class="node"><title>batch_normalization_6</title>
<polygon style="fill:none;stroke:black;" points="287,5067 487,5067 487,5019 287,5019 287,5067"/>
<text text-anchor="middle" x="374" y="5050">BatchNormalization</text>
<polyline style="fill:none;stroke:black;" points="460,5067 460,5019 "/>
<text text-anchor="middle" x="474" y="5050"> </text>
</g>
<!-- separable_conv2d_4&#45;&gt;batch_normalization_6 -->
<g id="edge56" class="edge"><title>separable_conv2d_4&#45;&gt;batch_normalization_6</title>
<path style="fill:none;stroke:black;" d="M387,4950C387,4970 387,4990 387,5006"/>
<polygon style="fill:black;stroke:black;" points="392,5006 387,5019 383,5006 392,5006"/>
<text text-anchor="middle" x="459" y="4991">(None, 38, 67, 512)</text>
</g>
<!-- activation_6 -->
<g id="node56" class="node"><title>activation_6</title>
<polygon style="fill:none;stroke:purple;" points="264,5184 510,5184 510,5136 264,5136 264,5184"/>
<text text-anchor="middle" x="314" y="5167">Activation</text>
<polyline style="fill:none;stroke:purple;" points="364,5184 364,5136 "/>
<text text-anchor="middle" x="411" y="5167">activation</text>
<polyline style="fill:none;stroke:purple;" points="459,5184 459,5136 "/>
<text text-anchor="middle" x="484" y="5167">relu</text>
</g>
<!-- batch_normalization_6&#45;&gt;activation_6 -->
<g id="edge58" class="edge"><title>batch_normalization_6&#45;&gt;activation_6</title>
<path style="fill:none;stroke:black;" d="M387,5067C387,5083 387,5104 387,5123"/>
<polygon style="fill:black;stroke:black;" points="392,5123 387,5136 383,5123 392,5123"/>
<text text-anchor="middle" x="459" y="5108">(None, 38, 67, 512)</text>
</g>
<!-- global_average_pooling2d -->
<g id="node58" class="node"><title>global_average_pooling2d</title>
<polygon style="fill:none;stroke:orange;" points="266,5302 508,5302 508,5254 266,5254 266,5302"/>
<text text-anchor="middle" x="374" y="5284">GlobalAveragePooling2D</text>
<polyline style="fill:none;stroke:orange;" points="482,5302 482,5254 "/>
<text text-anchor="middle" x="495" y="5284"> </text>
</g>
<!-- activation_6&#45;&gt;global_average_pooling2d -->
<g id="edge60" class="edge"><title>activation_6&#45;&gt;global_average_pooling2d</title>
<path style="fill:none;stroke:black;" d="M387,5184C387,5200 387,5222 387,5240"/>
<polygon style="fill:black;stroke:black;" points="392,5240 387,5254 383,5240 392,5240"/>
<text text-anchor="middle" x="459" y="5226">(None, 38, 67, 512)</text>
</g>
<!-- dropout -->
<g id="node60" class="node"><title>dropout</title>
<polygon style="fill:none;stroke:black;" points="298,5419 476,5419 476,5371 298,5371 298,5419"/>
<text text-anchor="middle" x="339" y="5402">Dropout</text>
<polyline style="fill:none;stroke:black;" points="382,5419 382,5371 "/>
<text text-anchor="middle" x="406" y="5402">rate</text>
<polyline style="fill:none;stroke:black;" points="431,5419 431,5371 "/>
<text text-anchor="middle" x="454" y="5402">0.5</text>
</g>
<!-- global_average_pooling2d&#45;&gt;dropout -->
<g id="edge62" class="edge"><title>global_average_pooling2d&#45;&gt;dropout</title>
<path style="fill:none;stroke:black;" d="M387,5302C387,5318 387,5339 387,5358"/>
<polygon style="fill:black;stroke:black;" points="392,5358 387,5371 383,5358 392,5358"/>
<text text-anchor="middle" x="431" y="5343">(None, 512)</text>
</g>
<!-- dense -->
<g id="node62" class="node"><title>dense</title>
<polygon style="fill:none;stroke:blue;" points="274,5584 500,5584 500,5488 274,5488 274,5584"/>
<text text-anchor="middle" x="307" y="5543">Dense</text>
<polyline style="fill:none;stroke:blue;" points="342,5584 342,5488 "/>
<text text-anchor="middle" x="386" y="5511">units</text>
<polyline style="fill:none;stroke:blue;" points="430,5520 430,5488 "/>
<text text-anchor="middle" x="464" y="5511">23</text>
<polyline style="fill:none;stroke:blue;" points="342,5520 500,5520 "/>
<text text-anchor="middle" x="388" y="5543">activation</text>
<polyline style="fill:none;stroke:blue;" points="436,5552 436,5520 "/>
<text text-anchor="middle" x="468" y="5543">linear</text>
<polyline style="fill:none;stroke:blue;" points="342,5552 500,5552 "/>
<text text-anchor="middle" x="388" y="5575">use_bias</text>
<polyline style="fill:none;stroke:blue;" points="435,5584 435,5552 "/>
<text text-anchor="middle" x="467" y="5575">True</text>
</g>
<!-- dropout&#45;&gt;dense -->
<g id="edge64" class="edge"><title>dropout&#45;&gt;dense</title>
<path style="fill:none;stroke:black;" d="M387,5419C387,5434 387,5455 387,5475"/>
<polygon style="fill:black;stroke:black;" points="392,5475 387,5488 383,5475 392,5475"/>
<text text-anchor="middle" x="431" y="5460">(None, 512)</text>
</g>
<!-- lambda -->
<g id="node64" class="node"><title>lambda</title>
<polygon style="fill:none;stroke:black;" points="332,5702 442,5702 442,5654 332,5654 332,5702"/>
<text text-anchor="middle" x="374" y="5684">Lambda</text>
<polyline style="fill:none;stroke:black;" points="415,5702 415,5654 "/>
<text text-anchor="middle" x="428" y="5684"> </text>
</g>
<!-- dense&#45;&gt;lambda -->
<g id="edge66" class="edge"><title>dense&#45;&gt;lambda</title>
<path style="fill:none;stroke:black;" d="M387,5584C387,5603 387,5623 387,5640"/>
<polygon style="fill:black;stroke:black;" points="392,5640 387,5654 383,5640 392,5640"/>
<text text-anchor="middle" x="427" y="5626">(None, 23)</text>
</g>
</g>
</svg>
