<?xml version="1.0" encoding="UTF-8" standalone="no"?>
<!DOCTYPE svg PUBLIC "-//W3C//DTD SVG 1.0//EN"
 "http://www.w3.org/TR/2001/REC-SVG-20010904/DTD/svg10.dtd" [
 <!ATTLIST svg xmlns:xlink CDATA #FIXED "http://www.w3.org/1999/xlink">
]>
<!-- Generated by dot version 2.7.20060111.0540 (Fri Sep  3 08:16:42 UTC 2010)
     For user: (rmoine) Moine Robin -->
<!-- Title: _anonymous_0 Pages: 1 -->
<svg width="1188px" height="5340px"
 viewBox = "0 0 891 4005"
 xmlns="http://www.w3.org/2000/svg" xmlns:xlink="http://www.w3.org/1999/xlink">
<g id="graph0" class="graph" style="font-family:Times-Roman;font-size:14.00;">
<title>_anonymous_0</title>
<polygon style="fill:white;stroke:white;" points="0,4005 0,-11 902,-11 902,4005 0,4005"/>
<!-- input_1 -->
<g id="node1" class="node"><title>input_1</title>
<polygon style="fill:none;stroke:yellow;" points="236,69 632,69 632,5 236,5 236,69"/>
<text text-anchor="middle" x="288" y="44">InputLayer</text>
<polyline style="fill:none;stroke:yellow;" points="340,69 340,5 "/>
<text text-anchor="middle" x="396" y="28">input_shape</text>
<polyline style="fill:none;stroke:yellow;" points="452,37 452,5 "/>
<text text-anchor="middle" x="542" y="28">[(None, 299, 532, 3)]</text>
<polyline style="fill:none;stroke:yellow;" points="340,37 632,37 "/>
<text text-anchor="middle" x="410" y="60">dtype</text>
<polyline style="fill:none;stroke:yellow;" points="480,69 480,37 "/>
<text text-anchor="middle" x="556" y="60">float32</text>
</g>
<!-- conv2d -->
<g id="node2" class="node"><title>conv2d</title>
<polygon style="fill:none;stroke:green;" points="275,395 592,395 592,139 275,139 275,395"/>
<text text-anchor="middle" x="316" y="273">Conv2D</text>
<polyline style="fill:none;stroke:green;" points="359,395 359,139 "/>
<text text-anchor="middle" x="423" y="161">filters</text>
<polyline style="fill:none;stroke:green;" points="488,171 488,139 "/>
<text text-anchor="middle" x="540" y="161">32</text>
<polyline style="fill:none;stroke:green;" points="359,171 592,171 "/>
<text text-anchor="middle" x="428" y="193">kernel_size</text>
<polyline style="fill:none;stroke:green;" points="498,203 498,171 "/>
<text text-anchor="middle" x="544" y="193">(3, 3)</text>
<polyline style="fill:none;stroke:green;" points="359,203 592,203 "/>
<text text-anchor="middle" x="419" y="225">strides</text>
<polyline style="fill:none;stroke:green;" points="480,235 480,203 "/>
<text text-anchor="middle" x="536" y="225">(2, 2)</text>
<polyline style="fill:none;stroke:green;" points="359,235 592,235 "/>
<text text-anchor="middle" x="422" y="257">padding</text>
<polyline style="fill:none;stroke:green;" points="486,267 486,235 "/>
<text text-anchor="middle" x="539" y="257">same</text>
<polyline style="fill:none;stroke:green;" points="359,267 592,267 "/>
<text text-anchor="middle" x="415" y="289">data_format</text>
<polyline style="fill:none;stroke:green;" points="471,299 471,267 "/>
<text text-anchor="middle" x="531" y="289">channels_last</text>
<polyline style="fill:none;stroke:green;" points="359,299 592,299 "/>
<text text-anchor="middle" x="431" y="321">dilation_rate</text>
<polyline style="fill:none;stroke:green;" points="503,331 503,299 "/>
<text text-anchor="middle" x="547" y="321">(1, 1)</text>
<polyline style="fill:none;stroke:green;" points="359,331 592,331 "/>
<text text-anchor="middle" x="424" y="353">activation</text>
<polyline style="fill:none;stroke:green;" points="491,363 491,331 "/>
<text text-anchor="middle" x="542" y="353">linear</text>
<polyline style="fill:none;stroke:green;" points="359,363 592,363 "/>
<text text-anchor="middle" x="423" y="385">use_bias</text>
<polyline style="fill:none;stroke:green;" points="487,395 487,363 "/>
<text text-anchor="middle" x="539" y="385">False</text>
</g>
<!-- input_1&#45;&gt;conv2d -->
<g id="edge2" class="edge"><title>input_1&#45;&gt;conv2d</title>
<path style="fill:none;stroke:black;" d="M434,69C434,84 434,104 434,125"/>
<polygon style="fill:black;stroke:black;" points="439,125 434,139 430,125 439,125"/>
<text text-anchor="middle" x="506" y="111">(None, 299, 532, 3)</text>
</g>
<!-- batch_normalization -->
<g id="node4" class="node"><title>batch_normalization</title>
<polygon style="fill:none;stroke:black;" points="334,512 534,512 534,464 334,464 334,512"/>
<text text-anchor="middle" x="420" y="495">BatchNormalization</text>
<polyline style="fill:none;stroke:black;" points="507,512 507,464 "/>
<text text-anchor="middle" x="520" y="495"> </text>
</g>
<!-- conv2d&#45;&gt;batch_normalization -->
<g id="edge4" class="edge"><title>conv2d&#45;&gt;batch_normalization</title>
<path style="fill:none;stroke:black;" d="M434,395C434,415 434,435 434,451"/>
<polygon style="fill:black;stroke:black;" points="439,451 434,464 430,451 439,451"/>
<text text-anchor="middle" x="511" y="436">(None, 150, 266, 32)</text>
</g>
<!-- activation -->
<g id="node6" class="node"><title>activation</title>
<polygon style="fill:none;stroke:purple;" points="311,629 556,629 556,581 311,581 311,629"/>
<text text-anchor="middle" x="360" y="612">Activation</text>
<polyline style="fill:none;stroke:purple;" points="411,629 411,581 "/>
<text text-anchor="middle" x="458" y="612">activation</text>
<polyline style="fill:none;stroke:purple;" points="506,629 506,581 "/>
<text text-anchor="middle" x="531" y="612">relu</text>
</g>
<!-- batch_normalization&#45;&gt;activation -->
<g id="edge6" class="edge"><title>batch_normalization&#45;&gt;activation</title>
<path style="fill:none;stroke:black;" d="M434,512C434,528 434,549 434,568"/>
<polygon style="fill:black;stroke:black;" points="439,568 434,581 430,568 439,568"/>
<text text-anchor="middle" x="511" y="553">(None, 150, 266, 32)</text>
</g>
<!-- conv2d_1 -->
<g id="node8" class="node"><title>conv2d_1</title>
<polygon style="fill:none;stroke:green;" points="275,955 592,955 592,699 275,699 275,955"/>
<text text-anchor="middle" x="316" y="833">Conv2D</text>
<polyline style="fill:none;stroke:green;" points="359,955 359,699 "/>
<text text-anchor="middle" x="423" y="721">filters</text>
<polyline style="fill:none;stroke:green;" points="488,731 488,699 "/>
<text text-anchor="middle" x="540" y="721">64</text>
<polyline style="fill:none;stroke:green;" points="359,731 592,731 "/>
<text text-anchor="middle" x="428" y="753">kernel_size</text>
<polyline style="fill:none;stroke:green;" points="498,763 498,731 "/>
<text text-anchor="middle" x="544" y="753">(3, 3)</text>
<polyline style="fill:none;stroke:green;" points="359,763 592,763 "/>
<text text-anchor="middle" x="419" y="785">strides</text>
<polyline style="fill:none;stroke:green;" points="480,795 480,763 "/>
<text text-anchor="middle" x="536" y="785">(1, 1)</text>
<polyline style="fill:none;stroke:green;" points="359,795 592,795 "/>
<text text-anchor="middle" x="422" y="817">padding</text>
<polyline style="fill:none;stroke:green;" points="486,827 486,795 "/>
<text text-anchor="middle" x="539" y="817">same</text>
<polyline style="fill:none;stroke:green;" points="359,827 592,827 "/>
<text text-anchor="middle" x="415" y="849">data_format</text>
<polyline style="fill:none;stroke:green;" points="471,859 471,827 "/>
<text text-anchor="middle" x="531" y="849">channels_last</text>
<polyline style="fill:none;stroke:green;" points="359,859 592,859 "/>
<text text-anchor="middle" x="431" y="881">dilation_rate</text>
<polyline style="fill:none;stroke:green;" points="503,891 503,859 "/>
<text text-anchor="middle" x="547" y="881">(1, 1)</text>
<polyline style="fill:none;stroke:green;" points="359,891 592,891 "/>
<text text-anchor="middle" x="424" y="913">activation</text>
<polyline style="fill:none;stroke:green;" points="491,923 491,891 "/>
<text text-anchor="middle" x="542" y="913">linear</text>
<polyline style="fill:none;stroke:green;" points="359,923 592,923 "/>
<text text-anchor="middle" x="423" y="945">use_bias</text>
<polyline style="fill:none;stroke:green;" points="487,955 487,923 "/>
<text text-anchor="middle" x="539" y="945">False</text>
</g>
<!-- activation&#45;&gt;conv2d_1 -->
<g id="edge8" class="edge"><title>activation&#45;&gt;conv2d_1</title>
<path style="fill:none;stroke:black;" d="M434,629C434,644 434,664 434,685"/>
<polygon style="fill:black;stroke:black;" points="439,685 434,699 430,685 439,685"/>
<text text-anchor="middle" x="511" y="671">(None, 150, 266, 32)</text>
</g>
<!-- batch_normalization_1 -->
<g id="node10" class="node"><title>batch_normalization_1</title>
<polygon style="fill:none;stroke:black;" points="334,1072 534,1072 534,1024 334,1024 334,1072"/>
<text text-anchor="middle" x="420" y="1055">BatchNormalization</text>
<polyline style="fill:none;stroke:black;" points="507,1072 507,1024 "/>
<text text-anchor="middle" x="520" y="1055"> </text>
</g>
<!-- conv2d_1&#45;&gt;batch_normalization_1 -->
<g id="edge10" class="edge"><title>conv2d_1&#45;&gt;batch_normalization_1</title>
<path style="fill:none;stroke:black;" d="M434,955C434,975 434,995 434,1011"/>
<polygon style="fill:black;stroke:black;" points="439,1011 434,1024 430,1011 439,1011"/>
<text text-anchor="middle" x="511" y="996">(None, 150, 266, 64)</text>
</g>
<!-- activation_1 -->
<g id="node12" class="node"><title>activation_1</title>
<polygon style="fill:none;stroke:purple;" points="311,1189 556,1189 556,1141 311,1141 311,1189"/>
<text text-anchor="middle" x="360" y="1172">Activation</text>
<polyline style="fill:none;stroke:purple;" points="411,1189 411,1141 "/>
<text text-anchor="middle" x="458" y="1172">activation</text>
<polyline style="fill:none;stroke:purple;" points="506,1189 506,1141 "/>
<text text-anchor="middle" x="531" y="1172">relu</text>
</g>
<!-- batch_normalization_1&#45;&gt;activation_1 -->
<g id="edge12" class="edge"><title>batch_normalization_1&#45;&gt;activation_1</title>
<path style="fill:none;stroke:black;" d="M434,1072C434,1088 434,1109 434,1128"/>
<polygon style="fill:black;stroke:black;" points="439,1128 434,1141 430,1128 439,1128"/>
<text text-anchor="middle" x="511" y="1113">(None, 150, 266, 64)</text>
</g>
<!-- activation_2 -->
<g id="node14" class="node"><title>activation_2</title>
<polygon style="fill:none;stroke:purple;" points="115,1307 360,1307 360,1259 115,1259 115,1307"/>
<text text-anchor="middle" x="164" y="1289">Activation</text>
<polyline style="fill:none;stroke:purple;" points="215,1307 215,1259 "/>
<text text-anchor="middle" x="262" y="1289">activation</text>
<polyline style="fill:none;stroke:purple;" points="310,1307 310,1259 "/>
<text text-anchor="middle" x="335" y="1289">relu</text>
</g>
<!-- activation_1&#45;&gt;activation_2 -->
<g id="edge14" class="edge"><title>activation_1&#45;&gt;activation_2</title>
<path style="fill:none;stroke:black;" d="M394,1189C364,1207 323,1232 290,1252"/>
<polygon style="fill:black;stroke:black;" points="291,1256 278,1259 287,1248 291,1256"/>
<text text-anchor="middle" x="431" y="1231">(None, 150, 266, 64)</text>
</g>
<!-- conv2d_2 -->
<g id="node28" class="node"><title>conv2d_2</title>
<polygon style="fill:none;stroke:green;" points="390,1587 707,1587 707,1331 390,1331 390,1587"/>
<text text-anchor="middle" x="431" y="1465">Conv2D</text>
<polyline style="fill:none;stroke:green;" points="474,1587 474,1331 "/>
<text text-anchor="middle" x="535" y="1353">filters</text>
<polyline style="fill:none;stroke:green;" points="598,1363 598,1331 "/>
<text text-anchor="middle" x="652" y="1353">128</text>
<polyline style="fill:none;stroke:green;" points="474,1363 707,1363 "/>
<text text-anchor="middle" x="543" y="1385">kernel_size</text>
<polyline style="fill:none;stroke:green;" points="612,1395 612,1363 "/>
<text text-anchor="middle" x="659" y="1385">(1, 1)</text>
<polyline style="fill:none;stroke:green;" points="474,1395 707,1395 "/>
<text text-anchor="middle" x="534" y="1417">strides</text>
<polyline style="fill:none;stroke:green;" points="595,1427 595,1395 "/>
<text text-anchor="middle" x="651" y="1417">(2, 2)</text>
<polyline style="fill:none;stroke:green;" points="474,1427 707,1427 "/>
<text text-anchor="middle" x="536" y="1449">padding</text>
<polyline style="fill:none;stroke:green;" points="600,1459 600,1427 "/>
<text text-anchor="middle" x="654" y="1449">same</text>
<polyline style="fill:none;stroke:green;" points="474,1459 707,1459 "/>
<text text-anchor="middle" x="530" y="1481">data_format</text>
<polyline style="fill:none;stroke:green;" points="586,1491 586,1459 "/>
<text text-anchor="middle" x="646" y="1481">channels_last</text>
<polyline style="fill:none;stroke:green;" points="474,1491 707,1491 "/>
<text text-anchor="middle" x="546" y="1513">dilation_rate</text>
<polyline style="fill:none;stroke:green;" points="618,1523 618,1491 "/>
<text text-anchor="middle" x="662" y="1513">(1, 1)</text>
<polyline style="fill:none;stroke:green;" points="474,1523 707,1523 "/>
<text text-anchor="middle" x="539" y="1545">activation</text>
<polyline style="fill:none;stroke:green;" points="606,1555 606,1523 "/>
<text text-anchor="middle" x="656" y="1545">linear</text>
<polyline style="fill:none;stroke:green;" points="474,1555 707,1555 "/>
<text text-anchor="middle" x="538" y="1577">use_bias</text>
<polyline style="fill:none;stroke:green;" points="602,1587 602,1555 "/>
<text text-anchor="middle" x="654" y="1577">False</text>
</g>
<!-- activation_1&#45;&gt;conv2d_2 -->
<g id="edge28" class="edge"><title>activation_1&#45;&gt;conv2d_2</title>
<path style="fill:none;stroke:black;" d="M488,1189C498,1196 507,1204 514,1213 534,1244 544,1281 550,1317"/>
<polygon style="fill:black;stroke:black;" points="554,1317 551,1331 546,1317 554,1317"/>
<text text-anchor="middle" x="599" y="1231">(None, 150, 266, 64)</text>
</g>
<!-- separable_conv2d -->
<g id="node16" class="node"><title>separable_conv2d</title>
<polygon style="fill:none;stroke:darkgreen;" points="10,1899 402,1899 402,1611 10,1611 10,1899"/>
<text text-anchor="middle" x="88" y="1761">SeparableConv2D</text>
<polyline style="fill:none;stroke:darkgreen;" points="168,1899 168,1611 "/>
<text text-anchor="middle" x="230" y="1633">filters</text>
<polyline style="fill:none;stroke:darkgreen;" points="292,1643 292,1611 "/>
<text text-anchor="middle" x="347" y="1633">128</text>
<polyline style="fill:none;stroke:darkgreen;" points="168,1643 402,1643 "/>
<text text-anchor="middle" x="238" y="1665">kernel_size</text>
<polyline style="fill:none;stroke:darkgreen;" points="307,1675 307,1643 "/>
<text text-anchor="middle" x="354" y="1665">(3, 3)</text>
<polyline style="fill:none;stroke:darkgreen;" points="168,1675 402,1675 "/>
<text text-anchor="middle" x="228" y="1697">strides</text>
<polyline style="fill:none;stroke:darkgreen;" points="290,1707 290,1675 "/>
<text text-anchor="middle" x="346" y="1697">(1, 1)</text>
<polyline style="fill:none;stroke:darkgreen;" points="168,1707 402,1707 "/>
<text text-anchor="middle" x="231" y="1729">padding</text>
<polyline style="fill:none;stroke:darkgreen;" points="295,1739 295,1707 "/>
<text text-anchor="middle" x="348" y="1729">same</text>
<polyline style="fill:none;stroke:darkgreen;" points="168,1739 402,1739 "/>
<text text-anchor="middle" x="224" y="1761">data_format</text>
<polyline style="fill:none;stroke:darkgreen;" points="280,1771 280,1739 "/>
<text text-anchor="middle" x="340" y="1761">channels_last</text>
<polyline style="fill:none;stroke:darkgreen;" points="168,1771 402,1771 "/>
<text text-anchor="middle" x="240" y="1793">dilation_rate</text>
<polyline style="fill:none;stroke:darkgreen;" points="312,1803 312,1771 "/>
<text text-anchor="middle" x="356" y="1793">(1, 1)</text>
<polyline style="fill:none;stroke:darkgreen;" points="168,1803 402,1803 "/>
<text text-anchor="middle" x="255" y="1825">depth_multiplier</text>
<polyline style="fill:none;stroke:darkgreen;" points="342,1835 342,1803 "/>
<text text-anchor="middle" x="371" y="1825">1</text>
<polyline style="fill:none;stroke:darkgreen;" points="168,1835 402,1835 "/>
<text text-anchor="middle" x="243" y="1857">activation</text>
<polyline style="fill:none;stroke:darkgreen;" points="319,1867 319,1835 "/>
<text text-anchor="middle" x="360" y="1857"> </text>
<polyline style="fill:none;stroke:darkgreen;" points="168,1867 402,1867 "/>
<text text-anchor="middle" x="232" y="1889">use_bias</text>
<polyline style="fill:none;stroke:darkgreen;" points="296,1899 296,1867 "/>
<text text-anchor="middle" x="348" y="1889">False</text>
</g>
<!-- activation_2&#45;&gt;separable_conv2d -->
<g id="edge16" class="edge"><title>activation_2&#45;&gt;separable_conv2d</title>
<path style="fill:none;stroke:black;" d="M230,1307C227,1315 224,1323 223,1331 210,1417 203,1516 203,1597"/>
<polygon style="fill:black;stroke:black;" points="208,1597 203,1611 199,1597 208,1597"/>
<text text-anchor="middle" x="306" y="1465">(None, 150, 266, 64)</text>
</g>
<!-- batch_normalization_2 -->
<g id="node18" class="node"><title>batch_normalization_2</title>
<polygon style="fill:none;stroke:black;" points="102,2016 302,2016 302,1968 102,1968 102,2016"/>
<text text-anchor="middle" x="188" y="1998">BatchNormalization</text>
<polyline style="fill:none;stroke:black;" points="275,2016 275,1968 "/>
<text text-anchor="middle" x="288" y="1998"> </text>
</g>
<!-- separable_conv2d&#45;&gt;batch_normalization_2 -->
<g id="edge18" class="edge"><title>separable_conv2d&#45;&gt;batch_normalization_2</title>
<path style="fill:none;stroke:black;" d="M203,1899C203,1919 203,1939 203,1954"/>
<polygon style="fill:black;stroke:black;" points="207,1954 202,1968 199,1954 207,1954"/>
<text text-anchor="middle" x="287" y="1940">(None, 150, 266, 128)</text>
</g>
<!-- activation_3 -->
<g id="node20" class="node"><title>activation_3</title>
<polygon style="fill:none;stroke:purple;" points="79,2133 324,2133 324,2085 79,2085 79,2133"/>
<text text-anchor="middle" x="128" y="2116">Activation</text>
<polyline style="fill:none;stroke:purple;" points="179,2133 179,2085 "/>
<text text-anchor="middle" x="226" y="2116">activation</text>
<polyline style="fill:none;stroke:purple;" points="274,2133 274,2085 "/>
<text text-anchor="middle" x="299" y="2116">relu</text>
</g>
<!-- batch_normalization_2&#45;&gt;activation_3 -->
<g id="edge20" class="edge"><title>batch_normalization_2&#45;&gt;activation_3</title>
<path style="fill:none;stroke:black;" d="M202,2016C202,2032 202,2053 202,2072"/>
<polygon style="fill:black;stroke:black;" points="207,2072 202,2085 198,2072 207,2072"/>
<text text-anchor="middle" x="284" y="2057">(None, 150, 266, 128)</text>
</g>
<!-- separable_conv2d_1 -->
<g id="node22" class="node"><title>separable_conv2d_1</title>
<polygon style="fill:none;stroke:darkgreen;" points="6,2491 398,2491 398,2203 6,2203 6,2491"/>
<text text-anchor="middle" x="84" y="2353">SeparableConv2D</text>
<polyline style="fill:none;stroke:darkgreen;" points="164,2491 164,2203 "/>
<text text-anchor="middle" x="226" y="2225">filters</text>
<polyline style="fill:none;stroke:darkgreen;" points="288,2235 288,2203 "/>
<text text-anchor="middle" x="343" y="2225">128</text>
<polyline style="fill:none;stroke:darkgreen;" points="164,2235 398,2235 "/>
<text text-anchor="middle" x="234" y="2257">kernel_size</text>
<polyline style="fill:none;stroke:darkgreen;" points="303,2267 303,2235 "/>
<text text-anchor="middle" x="350" y="2257">(3, 3)</text>
<polyline style="fill:none;stroke:darkgreen;" points="164,2267 398,2267 "/>
<text text-anchor="middle" x="224" y="2289">strides</text>
<polyline style="fill:none;stroke:darkgreen;" points="286,2299 286,2267 "/>
<text text-anchor="middle" x="342" y="2289">(1, 1)</text>
<polyline style="fill:none;stroke:darkgreen;" points="164,2299 398,2299 "/>
<text text-anchor="middle" x="227" y="2321">padding</text>
<polyline style="fill:none;stroke:darkgreen;" points="291,2331 291,2299 "/>
<text text-anchor="middle" x="344" y="2321">same</text>
<polyline style="fill:none;stroke:darkgreen;" points="164,2331 398,2331 "/>
<text text-anchor="middle" x="220" y="2353">data_format</text>
<polyline style="fill:none;stroke:darkgreen;" points="276,2363 276,2331 "/>
<text text-anchor="middle" x="336" y="2353">channels_last</text>
<polyline style="fill:none;stroke:darkgreen;" points="164,2363 398,2363 "/>
<text text-anchor="middle" x="236" y="2385">dilation_rate</text>
<polyline style="fill:none;stroke:darkgreen;" points="308,2395 308,2363 "/>
<text text-anchor="middle" x="352" y="2385">(1, 1)</text>
<polyline style="fill:none;stroke:darkgreen;" points="164,2395 398,2395 "/>
<text text-anchor="middle" x="251" y="2417">depth_multiplier</text>
<polyline style="fill:none;stroke:darkgreen;" points="338,2427 338,2395 "/>
<text text-anchor="middle" x="367" y="2417">1</text>
<polyline style="fill:none;stroke:darkgreen;" points="164,2427 398,2427 "/>
<text text-anchor="middle" x="239" y="2449">activation</text>
<polyline style="fill:none;stroke:darkgreen;" points="315,2459 315,2427 "/>
<text text-anchor="middle" x="356" y="2449"> </text>
<polyline style="fill:none;stroke:darkgreen;" points="164,2459 398,2459 "/>
<text text-anchor="middle" x="228" y="2481">use_bias</text>
<polyline style="fill:none;stroke:darkgreen;" points="292,2491 292,2459 "/>
<text text-anchor="middle" x="344" y="2481">False</text>
</g>
<!-- activation_3&#45;&gt;separable_conv2d_1 -->
<g id="edge22" class="edge"><title>activation_3&#45;&gt;separable_conv2d_1</title>
<path style="fill:none;stroke:black;" d="M202,2133C202,2148 202,2168 202,2189"/>
<polygon style="fill:black;stroke:black;" points="207,2189 202,2203 198,2189 207,2189"/>
<text text-anchor="middle" x="284" y="2175">(None, 150, 266, 128)</text>
</g>
<!-- batch_normalization_3 -->
<g id="node24" class="node"><title>batch_normalization_3</title>
<polygon style="fill:none;stroke:black;" points="102,2608 302,2608 302,2560 102,2560 102,2608"/>
<text text-anchor="middle" x="188" y="2591">BatchNormalization</text>
<polyline style="fill:none;stroke:black;" points="275,2608 275,2560 "/>
<text text-anchor="middle" x="288" y="2591"> </text>
</g>
<!-- separable_conv2d_1&#45;&gt;batch_normalization_3 -->
<g id="edge24" class="edge"><title>separable_conv2d_1&#45;&gt;batch_normalization_3</title>
<path style="fill:none;stroke:black;" d="M202,2491C202,2511 202,2531 202,2547"/>
<polygon style="fill:black;stroke:black;" points="207,2547 202,2560 198,2547 207,2547"/>
<text text-anchor="middle" x="284" y="2532">(None, 150, 266, 128)</text>
</g>
<!-- max_pooling2d -->
<g id="node26" class="node"><title>max_pooling2d</title>
<polygon style="fill:none;stroke:red;" points="56,2773 347,2773 347,2677 56,2677 56,2773"/>
<text text-anchor="middle" x="124" y="2732">MaxPooling2D</text>
<polyline style="fill:none;stroke:red;" points="192,2773 192,2677 "/>
<text text-anchor="middle" x="239" y="2700">pool_size</text>
<polyline style="fill:none;stroke:red;" points="286,2709 286,2677 "/>
<text text-anchor="middle" x="316" y="2700">(3, 3)</text>
<polyline style="fill:none;stroke:red;" points="192,2709 347,2709 "/>
<text text-anchor="middle" x="232" y="2732">strides</text>
<polyline style="fill:none;stroke:red;" points="274,2741 274,2709 "/>
<text text-anchor="middle" x="310" y="2732">(2, 2)</text>
<polyline style="fill:none;stroke:red;" points="192,2741 347,2741 "/>
<text text-anchor="middle" x="236" y="2764">padding</text>
<polyline style="fill:none;stroke:red;" points="280,2773 280,2741 "/>
<text text-anchor="middle" x="314" y="2764">same</text>
</g>
<!-- batch_normalization_3&#45;&gt;max_pooling2d -->
<g id="edge26" class="edge"><title>batch_normalization_3&#45;&gt;max_pooling2d</title>
<path style="fill:none;stroke:black;" d="M202,2608C202,2623 202,2644 202,2664"/>
<polygon style="fill:black;stroke:black;" points="207,2664 202,2677 198,2664 207,2664"/>
<text text-anchor="middle" x="284" y="2649">(None, 150, 266, 128)</text>
</g>
<!-- add -->
<g id="node30" class="node"><title>add</title>
<polygon style="fill:none;stroke:black;" points="338,2891 418,2891 418,2843 338,2843 338,2891"/>
<text text-anchor="middle" x="364" y="2873">Add</text>
<polyline style="fill:none;stroke:black;" points="391,2891 391,2843 "/>
<text text-anchor="middle" x="404" y="2873"> </text>
</g>
<!-- max_pooling2d&#45;&gt;add -->
<g id="edge30" class="edge"><title>max_pooling2d&#45;&gt;add</title>
<path style="fill:none;stroke:black;" d="M191,2773C191,2789 194,2807 203,2819 219,2837 278,2852 324,2859"/>
<polygon style="fill:black;stroke:black;" points="326,2855 338,2861 324,2863 326,2855"/>
<text text-anchor="middle" x="370" y="2815">[(None, 75, 133, 128), (None, 75, 133, 128)]</text>
</g>
<!-- conv2d_2&#45;&gt;add -->
<g id="edge32" class="edge"><title>conv2d_2&#45;&gt;add</title>
<path style="fill:none;stroke:black;" d="M551,1587C552,1683 554,1816 554,1933 554,1933 554,1933 554,2725 554,2768 563,2788 535,2819 520,2835 471,2848 431,2857"/>
<polygon style="fill:black;stroke:black;" points="431,2861 418,2860 430,2853 431,2861"/>
<text text-anchor="middle" x="719" y="2175">[(None, 75, 133, 128), (None, 75, 133, 128)]</text>
</g>
<!-- separable_conv2d_2 -->
<g id="node33" class="node"><title>separable_conv2d_2</title>
<polygon style="fill:none;stroke:darkgreen;" points="182,3248 574,3248 574,2960 182,2960 182,3248"/>
<text text-anchor="middle" x="260" y="3111">SeparableConv2D</text>
<polyline style="fill:none;stroke:darkgreen;" points="340,3248 340,2960 "/>
<text text-anchor="middle" x="402" y="2983">filters</text>
<polyline style="fill:none;stroke:darkgreen;" points="464,2992 464,2960 "/>
<text text-anchor="middle" x="519" y="2983">256</text>
<polyline style="fill:none;stroke:darkgreen;" points="340,2992 574,2992 "/>
<text text-anchor="middle" x="410" y="3015">kernel_size</text>
<polyline style="fill:none;stroke:darkgreen;" points="479,3024 479,2992 "/>
<text text-anchor="middle" x="526" y="3015">(3, 3)</text>
<polyline style="fill:none;stroke:darkgreen;" points="340,3024 574,3024 "/>
<text text-anchor="middle" x="400" y="3047">strides</text>
<polyline style="fill:none;stroke:darkgreen;" points="462,3056 462,3024 "/>
<text text-anchor="middle" x="518" y="3047">(1, 1)</text>
<polyline style="fill:none;stroke:darkgreen;" points="340,3056 574,3056 "/>
<text text-anchor="middle" x="403" y="3079">padding</text>
<polyline style="fill:none;stroke:darkgreen;" points="467,3088 467,3056 "/>
<text text-anchor="middle" x="520" y="3079">same</text>
<polyline style="fill:none;stroke:darkgreen;" points="340,3088 574,3088 "/>
<text text-anchor="middle" x="396" y="3111">data_format</text>
<polyline style="fill:none;stroke:darkgreen;" points="452,3120 452,3088 "/>
<text text-anchor="middle" x="512" y="3111">channels_last</text>
<polyline style="fill:none;stroke:darkgreen;" points="340,3120 574,3120 "/>
<text text-anchor="middle" x="412" y="3143">dilation_rate</text>
<polyline style="fill:none;stroke:darkgreen;" points="484,3152 484,3120 "/>
<text text-anchor="middle" x="528" y="3143">(1, 1)</text>
<polyline style="fill:none;stroke:darkgreen;" points="340,3152 574,3152 "/>
<text text-anchor="middle" x="427" y="3175">depth_multiplier</text>
<polyline style="fill:none;stroke:darkgreen;" points="514,3184 514,3152 "/>
<text text-anchor="middle" x="543" y="3175">1</text>
<polyline style="fill:none;stroke:darkgreen;" points="340,3184 574,3184 "/>
<text text-anchor="middle" x="415" y="3207">activation</text>
<polyline style="fill:none;stroke:darkgreen;" points="491,3216 491,3184 "/>
<text text-anchor="middle" x="532" y="3207"> </text>
<polyline style="fill:none;stroke:darkgreen;" points="340,3216 574,3216 "/>
<text text-anchor="middle" x="404" y="3239">use_bias</text>
<polyline style="fill:none;stroke:darkgreen;" points="468,3248 468,3216 "/>
<text text-anchor="middle" x="520" y="3239">False</text>
</g>
<!-- add&#45;&gt;separable_conv2d_2 -->
<g id="edge34" class="edge"><title>add&#45;&gt;separable_conv2d_2</title>
<path style="fill:none;stroke:black;" d="M378,2891C378,2905 378,2925 378,2947"/>
<polygon style="fill:black;stroke:black;" points="383,2947 378,2960 374,2947 383,2947"/>
<text text-anchor="middle" x="455" y="2932">(None, 75, 133, 128)</text>
</g>
<!-- batch_normalization_4 -->
<g id="node35" class="node"><title>batch_normalization_4</title>
<polygon style="fill:none;stroke:black;" points="278,3365 478,3365 478,3317 278,3317 278,3365"/>
<text text-anchor="middle" x="364" y="3348">BatchNormalization</text>
<polyline style="fill:none;stroke:black;" points="451,3365 451,3317 "/>
<text text-anchor="middle" x="464" y="3348"> </text>
</g>
<!-- separable_conv2d_2&#45;&gt;batch_normalization_4 -->
<g id="edge36" class="edge"><title>separable_conv2d_2&#45;&gt;batch_normalization_4</title>
<path style="fill:none;stroke:black;" d="M378,3248C378,3268 378,3288 378,3304"/>
<polygon style="fill:black;stroke:black;" points="383,3304 378,3317 374,3304 383,3304"/>
<text text-anchor="middle" x="455" y="3289">(None, 75, 133, 256)</text>
</g>
<!-- activation_4 -->
<g id="node37" class="node"><title>activation_4</title>
<polygon style="fill:none;stroke:purple;" points="255,3483 500,3483 500,3435 255,3435 255,3483"/>
<text text-anchor="middle" x="304" y="3465">Activation</text>
<polyline style="fill:none;stroke:purple;" points="355,3483 355,3435 "/>
<text text-anchor="middle" x="402" y="3465">activation</text>
<polyline style="fill:none;stroke:purple;" points="450,3483 450,3435 "/>
<text text-anchor="middle" x="475" y="3465">relu</text>
</g>
<!-- batch_normalization_4&#45;&gt;activation_4 -->
<g id="edge38" class="edge"><title>batch_normalization_4&#45;&gt;activation_4</title>
<path style="fill:none;stroke:black;" d="M378,3365C378,3381 378,3403 378,3421"/>
<polygon style="fill:black;stroke:black;" points="383,3421 378,3435 374,3421 383,3421"/>
<text text-anchor="middle" x="455" y="3407">(None, 75, 133, 256)</text>
</g>
<!-- global_average_pooling2d -->
<g id="node39" class="node"><title>global_average_pooling2d</title>
<polygon style="fill:none;stroke:orange;" points="256,3600 499,3600 499,3552 256,3552 256,3600"/>
<text text-anchor="middle" x="364" y="3582">GlobalAveragePooling2D</text>
<polyline style="fill:none;stroke:orange;" points="472,3600 472,3552 "/>
<text text-anchor="middle" x="486" y="3582"> </text>
</g>
<!-- activation_4&#45;&gt;global_average_pooling2d -->
<g id="edge40" class="edge"><title>activation_4&#45;&gt;global_average_pooling2d</title>
<path style="fill:none;stroke:black;" d="M378,3483C378,3498 378,3520 378,3538"/>
<polygon style="fill:black;stroke:black;" points="383,3538 378,3552 374,3538 383,3538"/>
<text text-anchor="middle" x="455" y="3524">(None, 75, 133, 256)</text>
</g>
<!-- dropout -->
<g id="node41" class="node"><title>dropout</title>
<polygon style="fill:none;stroke:black;" points="288,3717 467,3717 467,3669 288,3669 288,3717"/>
<text text-anchor="middle" x="330" y="3700">Dropout</text>
<polyline style="fill:none;stroke:black;" points="372,3717 372,3669 "/>
<text text-anchor="middle" x="396" y="3700">rate</text>
<polyline style="fill:none;stroke:black;" points="422,3717 422,3669 "/>
<text text-anchor="middle" x="444" y="3700">0.5</text>
</g>
<!-- global_average_pooling2d&#45;&gt;dropout -->
<g id="edge42" class="edge"><title>global_average_pooling2d&#45;&gt;dropout</title>
<path style="fill:none;stroke:black;" d="M378,3600C378,3616 378,3637 378,3656"/>
<polygon style="fill:black;stroke:black;" points="383,3656 378,3669 374,3656 383,3656"/>
<text text-anchor="middle" x="422" y="3641">(None, 256)</text>
</g>
<!-- dense -->
<g id="node43" class="node"><title>dense</title>
<polygon style="fill:none;stroke:blue;" points="264,3882 491,3882 491,3786 264,3786 264,3882"/>
<text text-anchor="middle" x="298" y="3841">Dense</text>
<polyline style="fill:none;stroke:blue;" points="332,3882 332,3786 "/>
<text text-anchor="middle" x="376" y="3809">units</text>
<polyline style="fill:none;stroke:blue;" points="420,3818 420,3786 "/>
<text text-anchor="middle" x="455" y="3809">23</text>
<polyline style="fill:none;stroke:blue;" points="332,3818 491,3818 "/>
<text text-anchor="middle" x="379" y="3841">activation</text>
<polyline style="fill:none;stroke:blue;" points="427,3850 427,3818 "/>
<text text-anchor="middle" x="459" y="3841">linear</text>
<polyline style="fill:none;stroke:blue;" points="332,3850 491,3850 "/>
<text text-anchor="middle" x="379" y="3873">use_bias</text>
<polyline style="fill:none;stroke:blue;" points="426,3882 426,3850 "/>
<text text-anchor="middle" x="458" y="3873">True</text>
</g>
<!-- dropout&#45;&gt;dense -->
<g id="edge44" class="edge"><title>dropout&#45;&gt;dense</title>
<path style="fill:none;stroke:black;" d="M378,3717C378,3732 378,3753 378,3773"/>
<polygon style="fill:black;stroke:black;" points="383,3773 378,3786 374,3773 383,3773"/>
<text text-anchor="middle" x="422" y="3758">(None, 256)</text>
</g>
<!-- lambda -->
<g id="node45" class="node"><title>lambda</title>
<polygon style="fill:none;stroke:black;" points="323,4000 432,4000 432,3952 323,3952 323,4000"/>
<text text-anchor="middle" x="364" y="3982">Lambda</text>
<polyline style="fill:none;stroke:black;" points="406,4000 406,3952 "/>
<text text-anchor="middle" x="419" y="3982"> </text>
</g>
<!-- dense&#45;&gt;lambda -->
<g id="edge46" class="edge"><title>dense&#45;&gt;lambda</title>
<path style="fill:none;stroke:black;" d="M378,3882C378,3901 378,3921 378,3938"/>
<polygon style="fill:black;stroke:black;" points="383,3938 378,3952 374,3938 383,3938"/>
<text text-anchor="middle" x="418" y="3924">(None, 23)</text>
</g>
</g>
</svg>
