<?xml version="1.0" encoding="UTF-8" standalone="no"?>
<!DOCTYPE svg PUBLIC "-//W3C//DTD SVG 1.0//EN"
 "http://www.w3.org/TR/2001/REC-SVG-20010904/DTD/svg10.dtd" [
 <!ATTLIST svg xmlns:xlink CDATA #FIXED "http://www.w3.org/1999/xlink">
]>
<!-- Generated by dot version 2.7.20060111.0540 (Fri Sep  3 08:16:42 UTC 2010)
     For user: (rmoine) Moine Robin -->
<!-- Title: _anonymous_0 Pages: 1 -->
<svg width="529px" height="3462px"
 viewBox = "0 0 397 2597"
 xmlns="http://www.w3.org/2000/svg" xmlns:xlink="http://www.w3.org/1999/xlink">
<g id="graph0" class="graph" style="font-family:Times-Roman;font-size:14.00;">
<title>_anonymous_0</title>
<polygon style="fill:white;stroke:white;" points="0,2597 0,-11 408,-11 408,2597 0,2597"/>
<!-- input_1 -->
<g id="node1" class="node"><title>input_1</title>
<polygon style="fill:none;stroke:yellow;" points="5,69 392,69 392,5 5,5 5,69"/>
<text text-anchor="middle" x="57" y="44">InputLayer</text>
<polyline style="fill:none;stroke:yellow;" points="109,69 109,5 "/>
<text text-anchor="middle" x="165" y="28">input_shape</text>
<polyline style="fill:none;stroke:yellow;" points="221,37 221,5 "/>
<text text-anchor="middle" x="307" y="28">[(None, 66, 200, 3)]</text>
<polyline style="fill:none;stroke:yellow;" points="109,37 392,37 "/>
<text text-anchor="middle" x="176" y="60">dtype</text>
<polyline style="fill:none;stroke:yellow;" points="244,69 244,37 "/>
<text text-anchor="middle" x="317" y="60">float32</text>
</g>
<!-- batch_normalization -->
<g id="node2" class="node"><title>batch_normalization</title>
<polygon style="fill:none;stroke:black;" points="99,187 299,187 299,139 99,139 99,187"/>
<text text-anchor="middle" x="185" y="169">BatchNormalization</text>
<polyline style="fill:none;stroke:black;" points="272,187 272,139 "/>
<text text-anchor="middle" x="285" y="169"> </text>
</g>
<!-- input_1&#45;&gt;batch_normalization -->
<g id="edge2" class="edge"><title>input_1&#45;&gt;batch_normalization</title>
<path style="fill:none;stroke:black;" d="M199,69C199,87 199,107 199,125"/>
<polygon style="fill:black;stroke:black;" points="204,125 199,139 195,125 204,125"/>
<text text-anchor="middle" x="267" y="111">(None, 66, 200, 3)</text>
</g>
<!-- conv2d -->
<g id="node4" class="node"><title>conv2d</title>
<polygon style="fill:none;stroke:green;" points="40,512 357,512 357,256 40,256 40,512"/>
<text text-anchor="middle" x="81" y="391">Conv2D</text>
<polyline style="fill:none;stroke:green;" points="124,512 124,256 "/>
<text text-anchor="middle" x="188" y="279">filters</text>
<polyline style="fill:none;stroke:green;" points="253,288 253,256 "/>
<text text-anchor="middle" x="305" y="279">24</text>
<polyline style="fill:none;stroke:green;" points="124,288 357,288 "/>
<text text-anchor="middle" x="193" y="311">kernel_size</text>
<polyline style="fill:none;stroke:green;" points="263,320 263,288 "/>
<text text-anchor="middle" x="309" y="311">(5, 5)</text>
<polyline style="fill:none;stroke:green;" points="124,320 357,320 "/>
<text text-anchor="middle" x="184" y="343">strides</text>
<polyline style="fill:none;stroke:green;" points="245,352 245,320 "/>
<text text-anchor="middle" x="301" y="343">(2, 2)</text>
<polyline style="fill:none;stroke:green;" points="124,352 357,352 "/>
<text text-anchor="middle" x="188" y="375">padding</text>
<polyline style="fill:none;stroke:green;" points="252,384 252,352 "/>
<text text-anchor="middle" x="304" y="375">valid</text>
<polyline style="fill:none;stroke:green;" points="124,384 357,384 "/>
<text text-anchor="middle" x="180" y="407">data_format</text>
<polyline style="fill:none;stroke:green;" points="236,416 236,384 "/>
<text text-anchor="middle" x="296" y="407">channels_last</text>
<polyline style="fill:none;stroke:green;" points="124,416 357,416 "/>
<text text-anchor="middle" x="196" y="439">dilation_rate</text>
<polyline style="fill:none;stroke:green;" points="268,448 268,416 "/>
<text text-anchor="middle" x="312" y="439">(1, 1)</text>
<polyline style="fill:none;stroke:green;" points="124,448 357,448 "/>
<text text-anchor="middle" x="193" y="471">activation</text>
<polyline style="fill:none;stroke:green;" points="263,480 263,448 "/>
<text text-anchor="middle" x="309" y="471">relu</text>
<polyline style="fill:none;stroke:green;" points="124,480 357,480 "/>
<text text-anchor="middle" x="189" y="503">use_bias</text>
<polyline style="fill:none;stroke:green;" points="255,512 255,480 "/>
<text text-anchor="middle" x="305" y="503">True</text>
</g>
<!-- batch_normalization&#45;&gt;conv2d -->
<g id="edge4" class="edge"><title>batch_normalization&#45;&gt;conv2d</title>
<path style="fill:none;stroke:black;" d="M199,187C199,201 199,221 199,243"/>
<polygon style="fill:black;stroke:black;" points="204,243 199,256 195,243 204,243"/>
<text text-anchor="middle" x="267" y="228">(None, 66, 200, 3)</text>
</g>
<!-- conv2d_1 -->
<g id="node6" class="node"><title>conv2d_1</title>
<polygon style="fill:none;stroke:green;" points="40,837 357,837 357,581 40,581 40,837"/>
<text text-anchor="middle" x="81" y="716">Conv2D</text>
<polyline style="fill:none;stroke:green;" points="124,837 124,581 "/>
<text text-anchor="middle" x="188" y="604">filters</text>
<polyline style="fill:none;stroke:green;" points="253,613 253,581 "/>
<text text-anchor="middle" x="305" y="604">36</text>
<polyline style="fill:none;stroke:green;" points="124,613 357,613 "/>
<text text-anchor="middle" x="193" y="636">kernel_size</text>
<polyline style="fill:none;stroke:green;" points="263,645 263,613 "/>
<text text-anchor="middle" x="309" y="636">(5, 5)</text>
<polyline style="fill:none;stroke:green;" points="124,645 357,645 "/>
<text text-anchor="middle" x="184" y="668">strides</text>
<polyline style="fill:none;stroke:green;" points="245,677 245,645 "/>
<text text-anchor="middle" x="301" y="668">(2, 2)</text>
<polyline style="fill:none;stroke:green;" points="124,677 357,677 "/>
<text text-anchor="middle" x="188" y="700">padding</text>
<polyline style="fill:none;stroke:green;" points="252,709 252,677 "/>
<text text-anchor="middle" x="304" y="700">valid</text>
<polyline style="fill:none;stroke:green;" points="124,709 357,709 "/>
<text text-anchor="middle" x="180" y="732">data_format</text>
<polyline style="fill:none;stroke:green;" points="236,741 236,709 "/>
<text text-anchor="middle" x="296" y="732">channels_last</text>
<polyline style="fill:none;stroke:green;" points="124,741 357,741 "/>
<text text-anchor="middle" x="196" y="764">dilation_rate</text>
<polyline style="fill:none;stroke:green;" points="268,773 268,741 "/>
<text text-anchor="middle" x="312" y="764">(1, 1)</text>
<polyline style="fill:none;stroke:green;" points="124,773 357,773 "/>
<text text-anchor="middle" x="193" y="796">activation</text>
<polyline style="fill:none;stroke:green;" points="263,805 263,773 "/>
<text text-anchor="middle" x="309" y="796">relu</text>
<polyline style="fill:none;stroke:green;" points="124,805 357,805 "/>
<text text-anchor="middle" x="189" y="828">use_bias</text>
<polyline style="fill:none;stroke:green;" points="255,837 255,805 "/>
<text text-anchor="middle" x="305" y="828">True</text>
</g>
<!-- conv2d&#45;&gt;conv2d_1 -->
<g id="edge6" class="edge"><title>conv2d&#45;&gt;conv2d_1</title>
<path style="fill:none;stroke:black;" d="M199,512C199,531 199,549 199,568"/>
<polygon style="fill:black;stroke:black;" points="204,568 199,581 195,568 204,568"/>
<text text-anchor="middle" x="267" y="553">(None, 31, 98, 24)</text>
</g>
<!-- conv2d_2 -->
<g id="node8" class="node"><title>conv2d_2</title>
<polygon style="fill:none;stroke:green;" points="40,1162 357,1162 357,906 40,906 40,1162"/>
<text text-anchor="middle" x="81" y="1041">Conv2D</text>
<polyline style="fill:none;stroke:green;" points="124,1162 124,906 "/>
<text text-anchor="middle" x="188" y="929">filters</text>
<polyline style="fill:none;stroke:green;" points="253,938 253,906 "/>
<text text-anchor="middle" x="305" y="929">48</text>
<polyline style="fill:none;stroke:green;" points="124,938 357,938 "/>
<text text-anchor="middle" x="193" y="961">kernel_size</text>
<polyline style="fill:none;stroke:green;" points="263,970 263,938 "/>
<text text-anchor="middle" x="309" y="961">(5, 5)</text>
<polyline style="fill:none;stroke:green;" points="124,970 357,970 "/>
<text text-anchor="middle" x="184" y="993">strides</text>
<polyline style="fill:none;stroke:green;" points="245,1002 245,970 "/>
<text text-anchor="middle" x="301" y="993">(2, 2)</text>
<polyline style="fill:none;stroke:green;" points="124,1002 357,1002 "/>
<text text-anchor="middle" x="188" y="1025">padding</text>
<polyline style="fill:none;stroke:green;" points="252,1034 252,1002 "/>
<text text-anchor="middle" x="304" y="1025">valid</text>
<polyline style="fill:none;stroke:green;" points="124,1034 357,1034 "/>
<text text-anchor="middle" x="180" y="1057">data_format</text>
<polyline style="fill:none;stroke:green;" points="236,1066 236,1034 "/>
<text text-anchor="middle" x="296" y="1057">channels_last</text>
<polyline style="fill:none;stroke:green;" points="124,1066 357,1066 "/>
<text text-anchor="middle" x="196" y="1089">dilation_rate</text>
<polyline style="fill:none;stroke:green;" points="268,1098 268,1066 "/>
<text text-anchor="middle" x="312" y="1089">(1, 1)</text>
<polyline style="fill:none;stroke:green;" points="124,1098 357,1098 "/>
<text text-anchor="middle" x="193" y="1121">activation</text>
<polyline style="fill:none;stroke:green;" points="263,1130 263,1098 "/>
<text text-anchor="middle" x="309" y="1121">relu</text>
<polyline style="fill:none;stroke:green;" points="124,1130 357,1130 "/>
<text text-anchor="middle" x="189" y="1153">use_bias</text>
<polyline style="fill:none;stroke:green;" points="255,1162 255,1130 "/>
<text text-anchor="middle" x="305" y="1153">True</text>
</g>
<!-- conv2d_1&#45;&gt;conv2d_2 -->
<g id="edge8" class="edge"><title>conv2d_1&#45;&gt;conv2d_2</title>
<path style="fill:none;stroke:black;" d="M199,837C199,856 199,874 199,893"/>
<polygon style="fill:black;stroke:black;" points="204,893 199,906 195,893 204,893"/>
<text text-anchor="middle" x="267" y="878">(None, 14, 47, 36)</text>
</g>
<!-- conv2d_3 -->
<g id="node10" class="node"><title>conv2d_3</title>
<polygon style="fill:none;stroke:green;" points="40,1488 357,1488 357,1232 40,1232 40,1488"/>
<text text-anchor="middle" x="81" y="1366">Conv2D</text>
<polyline style="fill:none;stroke:green;" points="124,1488 124,1232 "/>
<text text-anchor="middle" x="188" y="1254">filters</text>
<polyline style="fill:none;stroke:green;" points="253,1264 253,1232 "/>
<text text-anchor="middle" x="305" y="1254">64</text>
<polyline style="fill:none;stroke:green;" points="124,1264 357,1264 "/>
<text text-anchor="middle" x="193" y="1286">kernel_size</text>
<polyline style="fill:none;stroke:green;" points="263,1296 263,1264 "/>
<text text-anchor="middle" x="309" y="1286">(3, 3)</text>
<polyline style="fill:none;stroke:green;" points="124,1296 357,1296 "/>
<text text-anchor="middle" x="184" y="1318">strides</text>
<polyline style="fill:none;stroke:green;" points="245,1328 245,1296 "/>
<text text-anchor="middle" x="301" y="1318">(1, 1)</text>
<polyline style="fill:none;stroke:green;" points="124,1328 357,1328 "/>
<text text-anchor="middle" x="188" y="1350">padding</text>
<polyline style="fill:none;stroke:green;" points="252,1360 252,1328 "/>
<text text-anchor="middle" x="304" y="1350">valid</text>
<polyline style="fill:none;stroke:green;" points="124,1360 357,1360 "/>
<text text-anchor="middle" x="180" y="1382">data_format</text>
<polyline style="fill:none;stroke:green;" points="236,1392 236,1360 "/>
<text text-anchor="middle" x="296" y="1382">channels_last</text>
<polyline style="fill:none;stroke:green;" points="124,1392 357,1392 "/>
<text text-anchor="middle" x="196" y="1414">dilation_rate</text>
<polyline style="fill:none;stroke:green;" points="268,1424 268,1392 "/>
<text text-anchor="middle" x="312" y="1414">(1, 1)</text>
<polyline style="fill:none;stroke:green;" points="124,1424 357,1424 "/>
<text text-anchor="middle" x="193" y="1446">activation</text>
<polyline style="fill:none;stroke:green;" points="263,1456 263,1424 "/>
<text text-anchor="middle" x="309" y="1446">relu</text>
<polyline style="fill:none;stroke:green;" points="124,1456 357,1456 "/>
<text text-anchor="middle" x="189" y="1478">use_bias</text>
<polyline style="fill:none;stroke:green;" points="255,1488 255,1456 "/>
<text text-anchor="middle" x="305" y="1478">True</text>
</g>
<!-- conv2d_2&#45;&gt;conv2d_3 -->
<g id="edge10" class="edge"><title>conv2d_2&#45;&gt;conv2d_3</title>
<path style="fill:none;stroke:black;" d="M199,1162C199,1181 199,1200 199,1218"/>
<polygon style="fill:black;stroke:black;" points="204,1218 199,1232 195,1218 204,1218"/>
<text text-anchor="middle" x="261" y="1204">(None, 5, 22, 48)</text>
</g>
<!-- conv2d_4 -->
<g id="node12" class="node"><title>conv2d_4</title>
<polygon style="fill:none;stroke:green;" points="40,1813 357,1813 357,1557 40,1557 40,1813"/>
<text text-anchor="middle" x="81" y="1692">Conv2D</text>
<polyline style="fill:none;stroke:green;" points="124,1813 124,1557 "/>
<text text-anchor="middle" x="188" y="1580">filters</text>
<polyline style="fill:none;stroke:green;" points="253,1589 253,1557 "/>
<text text-anchor="middle" x="305" y="1580">64</text>
<polyline style="fill:none;stroke:green;" points="124,1589 357,1589 "/>
<text text-anchor="middle" x="193" y="1612">kernel_size</text>
<polyline style="fill:none;stroke:green;" points="263,1621 263,1589 "/>
<text text-anchor="middle" x="309" y="1612">(3, 3)</text>
<polyline style="fill:none;stroke:green;" points="124,1621 357,1621 "/>
<text text-anchor="middle" x="184" y="1644">strides</text>
<polyline style="fill:none;stroke:green;" points="245,1653 245,1621 "/>
<text text-anchor="middle" x="301" y="1644">(1, 1)</text>
<polyline style="fill:none;stroke:green;" points="124,1653 357,1653 "/>
<text text-anchor="middle" x="188" y="1676">padding</text>
<polyline style="fill:none;stroke:green;" points="252,1685 252,1653 "/>
<text text-anchor="middle" x="304" y="1676">valid</text>
<polyline style="fill:none;stroke:green;" points="124,1685 357,1685 "/>
<text text-anchor="middle" x="180" y="1708">data_format</text>
<polyline style="fill:none;stroke:green;" points="236,1717 236,1685 "/>
<text text-anchor="middle" x="296" y="1708">channels_last</text>
<polyline style="fill:none;stroke:green;" points="124,1717 357,1717 "/>
<text text-anchor="middle" x="196" y="1740">dilation_rate</text>
<polyline style="fill:none;stroke:green;" points="268,1749 268,1717 "/>
<text text-anchor="middle" x="312" y="1740">(1, 1)</text>
<polyline style="fill:none;stroke:green;" points="124,1749 357,1749 "/>
<text text-anchor="middle" x="193" y="1772">activation</text>
<polyline style="fill:none;stroke:green;" points="263,1781 263,1749 "/>
<text text-anchor="middle" x="309" y="1772">relu</text>
<polyline style="fill:none;stroke:green;" points="124,1781 357,1781 "/>
<text text-anchor="middle" x="189" y="1804">use_bias</text>
<polyline style="fill:none;stroke:green;" points="255,1813 255,1781 "/>
<text text-anchor="middle" x="305" y="1804">True</text>
</g>
<!-- conv2d_3&#45;&gt;conv2d_4 -->
<g id="edge12" class="edge"><title>conv2d_3&#45;&gt;conv2d_4</title>
<path style="fill:none;stroke:black;" d="M199,1488C199,1506 199,1525 199,1544"/>
<polygon style="fill:black;stroke:black;" points="204,1544 199,1557 195,1544 204,1544"/>
<text text-anchor="middle" x="261" y="1529">(None, 3, 20, 64)</text>
</g>
<!-- flatten -->
<g id="node14" class="node"><title>flatten</title>
<polygon style="fill:none;stroke:black;" points="45,1930 352,1930 352,1882 45,1882 45,1930"/>
<text text-anchor="middle" x="81" y="1913">Flatten</text>
<polyline style="fill:none;stroke:black;" points="119,1930 119,1882 "/>
<text text-anchor="middle" x="175" y="1913">data_format</text>
<polyline style="fill:none;stroke:black;" points="231,1930 231,1882 "/>
<text text-anchor="middle" x="291" y="1913">channels_last</text>
</g>
<!-- conv2d_4&#45;&gt;flatten -->
<g id="edge14" class="edge"><title>conv2d_4&#45;&gt;flatten</title>
<path style="fill:none;stroke:black;" d="M199,1813C199,1833 199,1853 199,1869"/>
<polygon style="fill:black;stroke:black;" points="204,1869 199,1882 195,1869 204,1869"/>
<text text-anchor="middle" x="261" y="1854">(None, 1, 18, 64)</text>
</g>
<!-- dense -->
<g id="node16" class="node"><title>dense</title>
<polygon style="fill:none;stroke:blue;" points="85,2096 312,2096 312,2000 85,2000 85,2096"/>
<text text-anchor="middle" x="119" y="2055">Dense</text>
<polyline style="fill:none;stroke:blue;" points="153,2096 153,2000 "/>
<text text-anchor="middle" x="195" y="2022">units</text>
<polyline style="fill:none;stroke:blue;" points="236,2032 236,2000 "/>
<text text-anchor="middle" x="273" y="2022">100</text>
<polyline style="fill:none;stroke:blue;" points="153,2032 312,2032 "/>
<text text-anchor="middle" x="200" y="2055">activation</text>
<polyline style="fill:none;stroke:blue;" points="248,2064 248,2032 "/>
<text text-anchor="middle" x="280" y="2055">linear</text>
<polyline style="fill:none;stroke:blue;" points="153,2064 312,2064 "/>
<text text-anchor="middle" x="200" y="2086">use_bias</text>
<polyline style="fill:none;stroke:blue;" points="247,2096 247,2064 "/>
<text text-anchor="middle" x="279" y="2086">True</text>
</g>
<!-- flatten&#45;&gt;dense -->
<g id="edge16" class="edge"><title>flatten&#45;&gt;dense</title>
<path style="fill:none;stroke:black;" d="M199,1930C199,1945 199,1966 199,1986"/>
<polygon style="fill:black;stroke:black;" points="204,1986 199,2000 195,1986 204,1986"/>
<text text-anchor="middle" x="248" y="1972">(None, 1152)</text>
</g>
<!-- dense_1 -->
<g id="node18" class="node"><title>dense_1</title>
<polygon style="fill:none;stroke:blue;" points="85,2261 312,2261 312,2165 85,2165 85,2261"/>
<text text-anchor="middle" x="119" y="2220">Dense</text>
<polyline style="fill:none;stroke:blue;" points="153,2261 153,2165 "/>
<text text-anchor="middle" x="197" y="2188">units</text>
<polyline style="fill:none;stroke:blue;" points="241,2197 241,2165 "/>
<text text-anchor="middle" x="276" y="2188">50</text>
<polyline style="fill:none;stroke:blue;" points="153,2197 312,2197 "/>
<text text-anchor="middle" x="200" y="2220">activation</text>
<polyline style="fill:none;stroke:blue;" points="248,2229 248,2197 "/>
<text text-anchor="middle" x="280" y="2220">linear</text>
<polyline style="fill:none;stroke:blue;" points="153,2229 312,2229 "/>
<text text-anchor="middle" x="200" y="2252">use_bias</text>
<polyline style="fill:none;stroke:blue;" points="247,2261 247,2229 "/>
<text text-anchor="middle" x="279" y="2252">True</text>
</g>
<!-- dense&#45;&gt;dense_1 -->
<g id="edge18" class="edge"><title>dense&#45;&gt;dense_1</title>
<path style="fill:none;stroke:black;" d="M199,2096C199,2113 199,2133 199,2152"/>
<polygon style="fill:black;stroke:black;" points="204,2152 199,2165 195,2152 204,2152"/>
<text text-anchor="middle" x="243" y="2137">(None, 100)</text>
</g>
<!-- dense_2 -->
<g id="node20" class="node"><title>dense_2</title>
<polygon style="fill:none;stroke:blue;" points="85,2426 312,2426 312,2330 85,2330 85,2426"/>
<text text-anchor="middle" x="119" y="2385">Dense</text>
<polyline style="fill:none;stroke:blue;" points="153,2426 153,2330 "/>
<text text-anchor="middle" x="197" y="2353">units</text>
<polyline style="fill:none;stroke:blue;" points="241,2362 241,2330 "/>
<text text-anchor="middle" x="276" y="2353">10</text>
<polyline style="fill:none;stroke:blue;" points="153,2362 312,2362 "/>
<text text-anchor="middle" x="200" y="2385">activation</text>
<polyline style="fill:none;stroke:blue;" points="248,2394 248,2362 "/>
<text text-anchor="middle" x="280" y="2385">linear</text>
<polyline style="fill:none;stroke:blue;" points="153,2394 312,2394 "/>
<text text-anchor="middle" x="200" y="2417">use_bias</text>
<polyline style="fill:none;stroke:blue;" points="247,2426 247,2394 "/>
<text text-anchor="middle" x="279" y="2417">True</text>
</g>
<!-- dense_1&#45;&gt;dense_2 -->
<g id="edge20" class="edge"><title>dense_1&#45;&gt;dense_2</title>
<path style="fill:none;stroke:black;" d="M199,2261C199,2278 199,2298 199,2317"/>
<polygon style="fill:black;stroke:black;" points="204,2317 199,2330 195,2317 204,2317"/>
<text text-anchor="middle" x="239" y="2302">(None, 50)</text>
</g>
<!-- dense_3 -->
<g id="node22" class="node"><title>dense_3</title>
<polygon style="fill:none;stroke:blue;" points="85,2592 312,2592 312,2496 85,2496 85,2592"/>
<text text-anchor="middle" x="119" y="2550">Dense</text>
<polyline style="fill:none;stroke:blue;" points="153,2592 153,2496 "/>
<text text-anchor="middle" x="199" y="2518">units</text>
<polyline style="fill:none;stroke:blue;" points="245,2528 245,2496 "/>
<text text-anchor="middle" x="279" y="2518">1</text>
<polyline style="fill:none;stroke:blue;" points="153,2528 312,2528 "/>
<text text-anchor="middle" x="200" y="2550">activation</text>
<polyline style="fill:none;stroke:blue;" points="248,2560 248,2528 "/>
<text text-anchor="middle" x="280" y="2550">linear</text>
<polyline style="fill:none;stroke:blue;" points="153,2560 312,2560 "/>
<text text-anchor="middle" x="200" y="2582">use_bias</text>
<polyline style="fill:none;stroke:blue;" points="247,2592 247,2560 "/>
<text text-anchor="middle" x="279" y="2582">True</text>
</g>
<!-- dense_2&#45;&gt;dense_3 -->
<g id="edge22" class="edge"><title>dense_2&#45;&gt;dense_3</title>
<path style="fill:none;stroke:black;" d="M199,2426C199,2444 199,2464 199,2482"/>
<polygon style="fill:black;stroke:black;" points="204,2482 199,2496 195,2482 204,2482"/>
<text text-anchor="middle" x="239" y="2468">(None, 10)</text>
</g>
</g>
</svg>
